<svg
            class="mx-auto"
            width="350"
            height="350"
            viewBox="0 0 350 350"
            fill="none"
            xmlns="http://www.w3.org/2000/svg"
          >
            <path
              d="M199.699 40.3199L29.8338 201.88C17.7518 213.37 22.6378 233.632 38.6328 238.35L263.48 304.678C279.475 309.4 294.577 295.05 290.664 278.824L235.683 50.9354C231.773 34.7269 211.781 28.8294 199.699 40.3199Z"
              fill="#FFF1C9"
            />
            <path
              d="M198.006 241.734H124.429C113.259 263.788 107.67 288.244 108.15 312.959L212.625 313.054C212.248 300.009 210.666 287.027 207.9 274.274C205.478 263.18 202.169 252.299 198.006 241.734Z"
              fill="#00C3D0"
            />
            <path
              d="M191.579 153.181H132.758V215.884H191.579V153.181Z"
              fill="#262626"
            />
            <path
              d="M168.389 142.733H154.137C149.619 142.733 145.286 140.939 142.091 137.744C138.897 134.549 137.102 130.217 137.102 125.699V107.691C137.102 103.283 138.853 99.0553 141.97 95.9381C145.088 92.821 149.315 91.0698 153.724 91.0698H168.329C174.153 91.0698 179.738 93.3833 183.856 97.5015C187.975 101.62 190.288 107.205 190.288 113.029V120.834C190.288 126.642 187.981 132.212 183.874 136.319C179.767 140.426 174.197 142.733 168.389 142.733Z"
              fill="#262626"
            />
            <path
              d="M186.13 136.713L194.855 107.866C194.977 107.463 195.186 107.092 195.468 106.779C195.75 106.466 196.097 106.219 196.485 106.056C196.873 105.892 197.292 105.816 197.713 105.833C198.134 105.851 198.545 105.96 198.919 106.155L208.341 111.055C208.75 111.268 209.101 111.576 209.366 111.953C209.63 112.331 209.799 112.767 209.859 113.224C209.919 113.681 209.867 114.145 209.709 114.578C209.551 115.011 209.29 115.399 208.95 115.71L186.13 136.713Z"
              fill="#D3B970"
            />
            <path
              d="M183.894 135.583L208.803 120.074C209.19 119.834 209.626 119.684 210.079 119.635C210.532 119.586 210.99 119.64 211.419 119.792C211.849 119.944 212.238 120.191 212.559 120.514C212.88 120.838 213.124 121.229 213.273 121.66L216.577 131.225C216.734 131.68 216.78 132.165 216.713 132.641C216.646 133.116 216.466 133.57 216.189 133.962C215.912 134.355 215.546 134.677 215.12 134.9C214.695 135.123 214.222 135.242 213.742 135.247L183.894 135.583Z"
              fill="#D3B970"
            />
            <path
              d="M191.58 137.673C190.573 137.673 189.589 137.374 188.752 136.815C187.916 136.256 187.263 135.461 186.878 134.531C186.493 133.601 186.392 132.578 186.589 131.591C186.785 130.604 187.27 129.697 187.981 128.985C188.693 128.273 189.6 127.789 190.587 127.592C191.574 127.396 192.597 127.497 193.527 127.882C194.457 128.267 195.252 128.919 195.811 129.756C196.37 130.593 196.669 131.577 196.669 132.584C196.667 133.933 196.13 135.226 195.176 136.18C194.222 137.134 192.929 137.671 191.58 137.673ZM191.58 128.895C190.85 128.895 190.137 129.111 189.53 129.516C188.924 129.922 188.451 130.498 188.172 131.172C187.892 131.846 187.819 132.588 187.962 133.303C188.104 134.019 188.455 134.676 188.971 135.192C189.487 135.708 190.144 136.059 190.86 136.202C191.576 136.344 192.317 136.271 192.991 135.992C193.666 135.713 194.242 135.24 194.647 134.633C195.052 134.026 195.269 133.313 195.269 132.584C195.267 131.606 194.878 130.669 194.186 129.977C193.495 129.286 192.558 128.896 191.58 128.895Z"
              fill="#262626"
            />
            <path
              d="M182.371 124.842C182.573 122.931 182.015 121.018 180.817 119.516C179.619 118.014 177.877 117.044 175.97 116.816L176.015 111.878C176.04 110.311 175.755 108.756 175.177 107.3C174.599 105.844 173.739 104.516 172.646 103.394C171.554 102.271 170.251 101.375 168.812 100.757C167.372 100.139 165.825 99.8108 164.259 99.7921L146.059 99.6626C143.674 99.6598 141.386 100.603 139.696 102.284C138.006 103.966 137.052 106.249 137.043 108.633L136.85 130.862C136.823 132.726 137.164 134.577 137.854 136.31C138.543 138.042 139.567 139.622 140.867 140.958C142.167 142.295 143.718 143.362 145.431 144.098C147.144 144.834 148.986 145.226 150.85 145.25H151.69L151.578 157.57L175.627 157.742L175.76 143.15H175.739L175.847 131.415C177.525 131.237 179.09 130.487 180.279 129.289C181.467 128.092 182.206 126.521 182.371 124.842Z"
              fill="white"
            />
            <path
              d="M229.162 186.459L200.319 203.462L218.232 240.506C218.232 240.506 226.317 255.857 241.479 248.661C244.538 247.182 247.266 245.098 249.498 242.536C251.73 239.973 253.419 236.985 254.464 233.751L270.049 186.459C270.049 186.459 292.946 178.686 296.341 158.68C296.472 158.046 296.483 157.393 296.373 156.755C296.2 155.801 295.765 154.914 295.116 154.193C295.349 153.665 295.536 153.118 295.676 152.558C295.991 151.288 296.292 150.049 295.263 148.999C294.835 148.535 294.245 148.254 293.615 148.215C292.985 148.176 292.364 148.381 291.882 148.789C292.12 147.487 291.763 146.339 290.962 145.835C290.632 145.641 290.251 145.551 289.87 145.579C288.06 145.688 286.744 148.169 286.37 148.862C284.837 151.662 281.599 156.398 276.804 163.037C276.804 163.037 283.703 153.682 280.031 151.106C278.936 150.339 277.627 151.414 276.906 152.177C275.572 153.577 275.058 155.512 274.067 157.122C272.761 159.141 271.016 160.839 268.961 162.089C265.723 164.147 262.139 165.239 259.185 167.748C257.841 168.879 256.641 170.172 255.615 171.598C254.415 173.285 253.991 175.277 252.955 176.981L236.922 203.214L229.162 186.459Z"
              fill="white"
            />
            <path
              d="M233.653 251.276C223.258 251.276 217.679 240.961 217.613 240.832L199.413 203.186L229.474 185.465L237.006 201.744L252.35 176.624C252.776 175.884 253.144 175.112 253.449 174.314C253.86 173.221 254.393 172.179 255.038 171.206C256.096 169.728 257.334 168.388 258.724 167.216C260.572 165.641 262.665 164.605 264.674 163.604C266.007 162.974 267.306 162.273 268.566 161.504C270.538 160.316 272.214 158.694 273.466 156.762C273.811 156.175 274.123 155.57 274.4 154.949C274.929 153.825 275.475 152.667 276.392 151.701C278.369 149.601 279.769 150.08 280.427 150.542C280.784 150.794 281.086 151.117 281.312 151.491C281.538 151.865 281.685 152.282 281.743 152.716C281.843 153.483 281.8 154.263 281.617 155.015C283.584 152.142 284.935 150.021 285.751 148.533L285.772 148.488C286.241 147.63 287.665 145.016 289.825 144.89C290.349 144.846 290.875 144.968 291.326 145.24C291.712 145.505 292.032 145.856 292.258 146.266C292.485 146.677 292.613 147.134 292.632 147.602C293.186 147.463 293.768 147.473 294.317 147.632C294.866 147.792 295.363 148.094 295.757 148.509C297.07 149.842 296.671 151.442 296.352 152.726C296.24 153.183 296.096 153.633 295.922 154.07C296.437 154.736 296.802 155.505 296.992 156.324C297.182 157.144 297.193 157.995 297.024 158.82C295.624 167.16 290.525 174.713 282.324 180.639C278.707 183.259 274.766 185.399 270.599 187.005L255.129 233.968C254.05 237.29 252.311 240.36 250.017 242.994C247.722 245.628 244.92 247.771 241.777 249.295C239.251 250.553 236.475 251.23 233.653 251.276ZM201.229 203.739L218.862 240.202C220.334 242.742 222.293 244.967 224.627 246.75C229.593 250.457 235.162 250.887 241.178 248.028C244.149 246.585 246.799 244.558 248.968 242.067C251.136 239.576 252.78 236.672 253.799 233.531L269.5 185.91L269.833 185.798C270.057 185.721 292.376 177.916 295.659 158.561C295.776 158.006 295.787 157.435 295.691 156.877C295.539 156.051 295.163 155.283 294.602 154.658L294.301 154.308L294.483 153.895C294.7 153.405 294.875 152.896 295.005 152.376C295.33 151.057 295.495 150.213 294.77 149.475C294.469 149.141 294.051 148.936 293.603 148.902C293.154 148.868 292.71 149.008 292.362 149.293L290.829 150.693L291.204 148.656C291.386 147.658 291.144 146.759 290.602 146.426C290.396 146.305 290.157 146.253 289.919 146.276C289.002 146.328 288.022 147.298 287.014 149.149L286.99 149.191C285.537 151.844 282.618 156.191 277.54 163.23L277.382 163.45L276.252 162.624L276.479 162.309C277.879 160.314 280.805 155.53 280.382 152.929C280.353 152.68 280.273 152.44 280.145 152.224C280.018 152.008 279.847 151.822 279.643 151.676C278.943 151.186 277.862 152.198 277.428 152.656C276.665 153.454 276.192 154.466 275.678 155.537C275.375 156.204 275.038 156.855 274.666 157.486C273.308 159.598 271.488 161.372 269.343 162.677C268.035 163.473 266.686 164.199 265.3 164.85C263.263 165.862 261.338 166.814 259.62 168.277C258.329 169.376 257.18 170.631 256.2 172.015C255.616 172.902 255.135 173.853 254.765 174.85C254.43 175.714 254.03 176.552 253.568 177.356L236.852 204.705L228.869 187.457L201.229 203.739Z"
              fill="#262626"
            />
            <path
              d="M175 127.638C174.903 127.643 174.806 127.643 174.71 127.638C174.144 127.581 173.609 127.357 173.171 126.995C172.733 126.633 172.412 126.15 172.248 125.606C172.085 125.062 172.087 124.481 172.253 123.938C172.419 123.395 172.743 122.913 173.183 122.554C173.623 122.194 174.16 121.973 174.725 121.919C175.291 121.865 175.86 121.979 176.36 122.248C176.861 122.517 177.27 122.928 177.537 123.429C177.804 123.931 177.916 124.5 177.86 125.066C177.788 125.774 177.456 126.43 176.929 126.907C176.401 127.385 175.715 127.65 175.004 127.652L175 127.638ZM175 123.291C174.715 123.291 174.436 123.374 174.197 123.529C173.958 123.685 173.769 123.906 173.654 124.167C173.538 124.428 173.5 124.716 173.546 124.998C173.591 125.279 173.717 125.542 173.908 125.753C174.099 125.965 174.348 126.116 174.624 126.189C174.899 126.262 175.19 126.253 175.461 126.164C175.732 126.075 175.971 125.909 176.15 125.687C176.328 125.465 176.438 125.195 176.467 124.912C176.505 124.523 176.387 124.135 176.14 123.832C175.893 123.53 175.536 123.338 175.147 123.298L175 123.291Z"
              fill="#262626"
            />
            <path
              d="M152.005 144.568L166.355 144.218C166.448 144.214 166.539 144.244 166.612 144.302C166.685 144.361 166.735 144.443 166.752 144.535C166.769 144.627 166.752 144.722 166.705 144.802C166.658 144.883 166.583 144.944 166.495 144.974L151.945 150.224L152.005 144.568Z"
              fill="#262626"
            />
            <path
              d="M172.851 125.818C172.677 125.819 172.508 125.755 172.379 125.638C172.25 125.522 172.168 125.361 172.151 125.188C172.072 124.411 172.199 123.627 172.519 122.915C172.839 122.203 173.341 121.588 173.974 121.131C174.582 120.717 175.281 120.453 176.012 120.364C176.742 120.274 177.484 120.361 178.174 120.617C178.264 120.648 178.346 120.696 178.416 120.759C178.486 120.823 178.543 120.9 178.582 120.985C178.622 121.071 178.644 121.164 178.647 121.258C178.649 121.353 178.633 121.447 178.599 121.535C178.564 121.623 178.512 121.703 178.446 121.77C178.38 121.837 178.3 121.891 178.213 121.927C178.126 121.962 178.032 121.98 177.937 121.979C177.843 121.978 177.75 121.957 177.663 121.919C177.191 121.75 176.685 121.693 176.187 121.754C175.688 121.814 175.211 121.991 174.793 122.269C174.36 122.581 174.017 123.002 173.798 123.489C173.579 123.977 173.493 124.513 173.547 125.044C173.556 125.136 173.548 125.228 173.521 125.316C173.495 125.404 173.451 125.486 173.393 125.557C173.335 125.629 173.263 125.688 173.182 125.731C173.101 125.775 173.012 125.802 172.921 125.811L172.851 125.818Z"
              fill="#262626"
            />
            <path
              d="M102.361 184.412L131.205 201.415L113.292 238.459C113.292 238.459 105.203 253.81 90.0447 246.614C86.9846 245.136 84.2562 243.052 82.0243 240.489C79.7924 237.927 78.1035 234.938 77.0597 231.704L61.4707 184.412C61.4707 184.412 38.5737 176.638 35.1822 156.632C35.051 155.998 35.0403 155.345 35.1507 154.707C35.3219 153.754 35.7545 152.867 36.4002 152.145C36.1676 151.617 35.9803 151.07 35.8402 150.511C35.5252 149.244 35.2242 148.001 36.2567 146.951C36.6846 146.489 37.2744 146.209 37.9034 146.169C38.5324 146.13 39.1523 146.335 39.6342 146.741C39.3962 145.439 39.7567 144.291 40.5547 143.787C40.885 143.595 41.2654 143.506 41.6467 143.532C43.4562 143.64 44.7722 146.122 45.1467 146.815C46.6832 149.615 49.9207 154.354 54.7122 160.99C54.7122 160.99 47.8137 151.634 51.4852 149.058C52.5807 148.292 53.8897 149.37 54.6142 150.129C55.9477 151.529 56.4587 153.468 57.4492 155.075C58.7571 157.093 60.5024 158.79 62.5557 160.041C65.7932 162.099 69.3772 163.191 72.3347 165.701C73.6786 166.832 74.8777 168.125 75.9047 169.551C77.1017 171.238 77.5287 173.226 78.5647 174.93L94.5947 201.163L102.361 184.412Z"
              fill="white"
            />
            <path
              d="M97.8704 249.228C95.0472 249.185 92.2697 248.508 89.7434 247.247C86.6009 245.723 83.7986 243.58 81.5048 240.946C79.2109 238.312 77.4727 235.242 76.3944 231.921L60.8999 184.958C56.7321 183.353 52.7907 181.213 49.1749 178.591C40.9779 172.669 35.8959 165.113 34.4749 156.748C34.309 155.927 34.3219 155.081 34.5128 154.266C34.7036 153.451 35.068 152.687 35.5809 152.026C35.4101 151.587 35.2664 151.138 35.1504 150.682C34.8319 149.394 34.4504 147.798 35.7454 146.461C36.1398 146.047 36.6368 145.745 37.1858 145.586C37.7349 145.427 38.3163 145.416 38.8709 145.555C38.8904 145.086 39.0185 144.629 39.2451 144.219C39.4717 143.809 39.7905 143.458 40.1764 143.192C40.628 142.921 41.1531 142.799 41.6779 142.842C43.8374 142.972 45.2619 145.583 45.7309 146.44L45.7554 146.486C46.5849 148.001 47.9149 150.098 49.8889 152.975C49.7037 152.22 49.661 151.438 49.7629 150.668C49.8193 150.234 49.9655 149.817 50.192 149.443C50.4186 149.068 50.7206 148.746 51.0789 148.495C51.7369 148.033 53.1369 147.571 55.1144 149.653C56.0279 150.619 56.5774 151.781 57.1059 152.901C57.3814 153.523 57.6934 154.129 58.0404 154.714C59.2867 156.646 60.9564 158.269 62.9229 159.46C64.1832 160.227 65.4823 160.927 66.8149 161.56C68.8379 162.561 70.9309 163.601 72.7649 165.172C74.1544 166.345 75.3935 167.685 76.4539 169.162C77.0983 170.135 77.6302 171.177 78.0394 172.27C78.3482 173.068 78.7167 173.841 79.1419 174.584L94.4894 199.7L102.021 183.421L132.086 201.145L113.886 238.767C113.844 238.91 108.262 249.228 97.8704 249.228ZM38.1184 146.853C37.606 146.863 37.1182 147.074 36.7604 147.441C36.0324 148.18 36.1969 149.027 36.5259 150.343C36.6532 150.863 36.8265 151.372 37.0439 151.862L37.2259 152.275L36.9284 152.625C36.3648 153.248 35.9877 154.016 35.8399 154.844C35.7425 155.393 35.752 155.956 35.8679 156.503C39.1579 175.9 61.4704 183.687 61.6979 183.764L62.0269 183.876L77.7244 231.497C78.7431 234.639 80.3861 237.544 82.5549 240.035C84.7237 242.527 87.3735 244.555 90.3454 245.998C96.3759 248.861 101.958 248.423 106.932 244.689C109.257 242.907 111.208 240.684 112.672 238.147L130.291 201.705L102.672 185.423L94.6889 202.65L77.9729 175.298C77.5092 174.495 77.109 173.657 76.7759 172.792C76.4046 171.796 75.9233 170.845 75.3409 169.957C74.3468 168.583 73.1864 167.338 71.8864 166.25C70.1679 164.787 68.2464 163.835 66.2094 162.824C64.831 162.171 63.4886 161.446 62.1879 160.65C60.0418 159.346 58.2202 157.571 56.8609 155.46C56.4885 154.829 56.1519 154.178 55.8529 153.51C55.3489 152.439 54.8729 151.431 54.1029 150.63C53.6689 150.171 52.5839 149.16 51.8839 149.65C51.6804 149.795 51.5096 149.982 51.3824 150.198C51.2552 150.414 51.1745 150.654 51.1454 150.903C50.7219 153.503 53.6234 158.253 55.0409 160.272L55.2754 160.598L54.1449 161.424L53.9874 161.203C48.8984 154.147 45.9794 149.814 44.5374 147.168L44.5129 147.123C43.5014 145.271 42.5249 144.305 41.6044 144.249C41.3668 144.228 41.1286 144.281 40.9219 144.4C40.3794 144.75 40.1379 145.632 40.3234 146.633L40.6944 148.666L39.1649 147.266C38.8808 147.001 38.5069 146.853 38.1184 146.853Z"
              fill="#262626"
            />
            <path
              d="M140.042 122.818C140.825 122.818 141.46 122.184 141.46 121.401C141.46 120.618 140.825 119.983 140.042 119.983C139.259 119.983 138.625 120.618 138.625 121.401C138.625 122.184 139.259 122.818 140.042 122.818Z"
              fill="#262626"
            />
            <path
              d="M155.246 122.587C156.029 122.587 156.664 121.953 156.664 121.17C156.664 120.387 156.029 119.752 155.246 119.752C154.463 119.752 153.829 120.387 153.829 121.17C153.829 121.953 154.463 122.587 155.246 122.587Z"
              fill="#262626"
            />
            <path
              d="M145.649 127.669C145.569 127.669 145.49 127.655 145.414 127.627C144.364 127.277 143.314 126.759 143.314 125.842C143.326 125.671 143.372 125.503 143.449 125.35C143.526 125.196 143.632 125.059 143.762 124.946C143.853 124.854 143.938 124.757 144.018 124.656C144.373 124.196 144.586 123.643 144.63 123.063L145.218 116.921C145.236 116.735 145.327 116.564 145.47 116.445C145.614 116.327 145.799 116.27 145.985 116.287C146.171 116.305 146.342 116.396 146.46 116.539C146.579 116.683 146.636 116.868 146.618 117.054L146.023 123.2C145.953 124.04 145.642 124.842 145.127 125.51C145.019 125.65 144.924 125.755 144.844 125.842C145.174 126.038 145.527 126.194 145.894 126.308C146.051 126.362 146.183 126.47 146.267 126.613C146.352 126.755 146.383 126.923 146.355 127.086C146.327 127.25 146.243 127.398 146.116 127.505C145.989 127.612 145.829 127.67 145.663 127.669H145.649Z"
              fill="#262626"
            />
            <path
              d="M147.763 133.788C146.69 133.758 145.645 133.445 144.732 132.881C144.651 132.833 144.58 132.769 144.525 132.693C144.469 132.617 144.43 132.53 144.408 132.438C144.387 132.346 144.384 132.251 144.401 132.158C144.417 132.066 144.452 131.977 144.503 131.898C144.555 131.819 144.622 131.751 144.7 131.699C144.778 131.646 144.866 131.61 144.959 131.592C145.051 131.575 145.147 131.576 145.239 131.596C145.331 131.616 145.418 131.654 145.495 131.709C145.519 131.726 146.961 132.633 148.379 132.321C148.767 132.223 149.13 132.047 149.447 131.803C149.765 131.559 150.029 131.253 150.223 130.904C150.323 130.747 150.48 130.636 150.661 130.595C150.843 130.554 151.033 130.587 151.189 130.687C151.346 130.786 151.457 130.944 151.498 131.125C151.539 131.306 151.506 131.496 151.406 131.653C151.047 132.303 150.519 132.845 149.878 133.221C149.237 133.597 148.506 133.793 147.763 133.788Z"
              fill="#262626"
            />
            <path
              d="M124.429 241.735L118.304 211.985C117.261 206.926 117.526 201.684 119.074 196.756L132.759 153.178H144.963L147.763 159.394C153.773 172.739 172.82 172.452 178.427 158.935L180.814 153.178H191.58L205.065 197.484C206.805 203.195 206.892 209.282 205.314 215.04L198.006 241.735H124.429Z"
              fill="#00C3D0"
            />
            <path
              d="M163.625 109.809H156.863C154.773 109.809 152.768 108.978 151.29 107.5C149.811 106.022 148.981 104.017 148.981 101.927V96.8589H163.625V109.809Z"
              fill="#262626"
            />
            <path
              d="M191.58 153.181L205.954 201.19L232.988 185.241C230.001 179.763 226.683 174.473 223.052 169.4C216.643 160.454 213.322 155.935 207.694 153.65C201.712 151.2 195.703 152.05 191.58 153.181Z"
              fill="#262626"
            />
            <path
              d="M182.41 117.446H170.265C169.093 117.446 167.934 117.215 166.852 116.766C165.77 116.317 164.787 115.66 163.96 114.832C163.132 114.003 162.475 113.02 162.028 111.938C161.58 110.856 161.35 109.696 161.35 108.525V104.493H182.413L182.41 117.446Z"
              fill="#262626"
            />
            <path
              d="M178.118 96.8589H157.188V109.812H178.118V96.8589Z"
              fill="#262626"
            />
            <path
              d="M188.164 166.233C197.361 166.233 204.817 158.777 204.817 149.58C204.817 140.383 197.361 132.927 188.164 132.927C178.967 132.927 171.511 140.383 171.511 149.58C171.511 158.777 178.967 166.233 188.164 166.233Z"
              fill="#262626"
            />
            <path
              d="M175.991 177.842C182.801 177.842 188.321 172.322 188.321 165.512C188.321 158.702 182.801 153.181 175.991 153.181C169.181 153.181 163.66 158.702 163.66 165.512C163.66 172.322 169.181 177.842 175.991 177.842Z"
              fill="#262626"
            />
            <path
              d="M198.128 178.542C204.938 178.542 210.458 173.021 210.458 166.211C210.458 159.401 204.938 153.881 198.128 153.881C191.318 153.881 185.797 159.401 185.797 166.211C185.797 173.021 191.318 178.542 198.128 178.542Z"
              fill="#262626"
            />
            <path
              d="M172.998 220.36H151.336C148.106 220.356 145.008 219.071 142.724 216.786C140.44 214.501 139.156 211.404 139.153 208.173V193.522C139.153 191.953 139.775 190.449 140.884 189.338C141.992 188.228 143.496 187.603 145.064 187.6H179.27C180.838 187.602 182.341 188.226 183.45 189.335C184.559 190.443 185.183 191.947 185.185 193.515V208.166C185.183 211.398 183.899 214.498 181.614 216.784C179.329 219.07 176.23 220.356 172.998 220.36ZM145.064 189C143.868 189.002 142.721 189.478 141.875 190.325C141.029 191.171 140.554 192.319 140.553 193.515V208.166C140.556 211.026 141.693 213.767 143.714 215.789C145.736 217.812 148.477 218.949 151.336 218.953H172.998C175.858 218.95 178.6 217.813 180.622 215.791C182.645 213.768 183.782 211.026 183.785 208.166V193.522C183.785 192.324 183.309 191.175 182.463 190.327C181.616 189.479 180.468 189.002 179.27 189H145.064Z"
              fill="white"
            />
            <path
              d="M185.797 194.624C192.607 194.624 198.128 189.104 198.128 182.294C198.128 175.484 192.607 169.963 185.797 169.963C178.987 169.963 173.467 175.484 173.467 182.294C173.467 189.104 178.987 194.624 185.797 194.624Z"
              fill="#262626"
            />
            <path
              d="M229.057 215.533C228.931 215.533 228.806 215.498 228.698 215.432C228.589 215.367 228.5 215.273 228.441 215.161C228.382 215.048 228.354 214.922 228.361 214.796C228.368 214.669 228.409 214.546 228.48 214.441L236.337 202.832C236.389 202.756 236.455 202.69 236.532 202.639C236.608 202.589 236.694 202.553 236.785 202.536C236.875 202.518 236.968 202.519 237.058 202.537C237.148 202.555 237.234 202.591 237.31 202.643C237.387 202.694 237.452 202.76 237.503 202.837C237.554 202.914 237.589 203 237.606 203.09C237.624 203.181 237.624 203.273 237.605 203.364C237.587 203.454 237.551 203.54 237.499 203.616L229.638 215.225C229.574 215.32 229.488 215.398 229.386 215.452C229.285 215.506 229.172 215.533 229.057 215.533Z"
              fill="#262626"
            />
            <path
              d="M287.5 169.05C287.359 169.05 287.221 169.008 287.104 168.928C286.987 168.848 286.897 168.735 286.846 168.603C286.795 168.471 286.785 168.327 286.818 168.189C286.85 168.052 286.923 167.927 287.028 167.832C291.337 163.905 294.301 154.35 294.329 154.255C294.356 154.167 294.4 154.085 294.458 154.014C294.517 153.943 294.589 153.885 294.67 153.841C294.751 153.798 294.84 153.771 294.932 153.763C295.024 153.754 295.116 153.763 295.204 153.79C295.292 153.817 295.374 153.861 295.445 153.919C295.516 153.978 295.575 154.05 295.618 154.131C295.661 154.212 295.688 154.301 295.697 154.393C295.706 154.484 295.696 154.577 295.67 154.665C295.544 155.071 292.565 164.678 287.97 168.868C287.841 168.985 287.674 169.049 287.5 169.05Z"
              fill="#262626"
            />
            <path
              d="M283.15 165.263C283.005 165.264 282.863 165.219 282.744 165.136C282.626 165.052 282.536 164.934 282.487 164.797C282.439 164.66 282.434 164.511 282.474 164.372C282.514 164.232 282.596 164.108 282.709 164.017C286.696 160.783 291.176 148.666 291.221 148.547C291.293 148.384 291.423 148.254 291.587 148.184C291.751 148.114 291.936 148.109 292.103 148.17C292.27 148.231 292.408 148.354 292.488 148.513C292.568 148.672 292.584 148.856 292.534 149.027C292.345 149.541 287.875 161.627 283.591 165.106C283.467 165.207 283.311 165.263 283.15 165.263Z"
              fill="#262626"
            />
            <path
              d="M102.462 213.5C102.349 213.5 102.237 213.472 102.136 213.419C102.035 213.366 101.949 213.289 101.885 213.195L94.0239 201.582C93.9679 201.506 93.9278 201.42 93.9061 201.328C93.8843 201.236 93.8813 201.141 93.8973 201.048C93.9133 200.955 93.9479 200.867 93.999 200.787C94.0502 200.708 94.1168 200.64 94.1949 200.587C94.273 200.534 94.361 200.498 94.4536 200.48C94.5461 200.462 94.6414 200.463 94.7336 200.482C94.8259 200.502 94.9131 200.54 94.9903 200.594C95.0674 200.649 95.1327 200.718 95.1824 200.798L103.043 212.408C103.115 212.513 103.156 212.636 103.162 212.763C103.169 212.89 103.141 213.016 103.081 213.129C103.022 213.241 102.932 213.335 102.823 213.4C102.714 213.466 102.59 213.5 102.462 213.5Z"
              fill="#262626"
            />
            <path
              d="M44.0197 167.006C43.8462 167.005 43.679 166.94 43.5507 166.824C38.9587 162.624 35.9767 153.027 35.8507 152.621C35.8185 152.532 35.8047 152.437 35.8103 152.342C35.8158 152.247 35.8406 152.155 35.883 152.07C35.9254 151.985 35.9846 151.91 36.0569 151.849C36.1293 151.787 36.2134 151.742 36.3041 151.714C36.3948 151.686 36.4901 151.677 36.5844 151.687C36.6787 151.697 36.7699 151.727 36.8525 151.773C36.9351 151.82 37.0074 151.882 37.0651 151.958C37.1227 152.033 37.1644 152.119 37.1877 152.211C37.2192 152.306 40.1837 161.861 44.4887 165.791C44.5921 165.887 44.6643 166.011 44.696 166.148C44.7277 166.285 44.7174 166.428 44.6664 166.56C44.6154 166.691 44.5261 166.803 44.4101 166.883C44.2941 166.963 44.1568 167.005 44.0162 167.006H44.0197Z"
              fill="#262626"
            />
            <path
              d="M48.3664 163.215C48.2057 163.215 48.05 163.16 47.9254 163.058C43.6379 159.582 39.1754 147.493 38.9794 146.982C38.9477 146.896 38.9333 146.804 38.9371 146.712C38.9409 146.62 38.9627 146.53 39.0014 146.446C39.0401 146.363 39.0948 146.288 39.1625 146.225C39.2302 146.163 39.3095 146.115 39.3959 146.083C39.4824 146.051 39.5742 146.037 39.6661 146.041C39.7581 146.044 39.8484 146.066 39.932 146.105C40.0155 146.144 40.0906 146.198 40.1529 146.266C40.2153 146.334 40.2637 146.413 40.2954 146.499C40.3409 146.622 44.8174 158.749 48.8074 161.973C48.9193 162.064 49.0003 162.188 49.0392 162.327C49.0781 162.466 49.073 162.614 49.0247 162.75C48.9765 162.886 48.8873 163.003 48.7694 163.087C48.6516 163.17 48.5108 163.215 48.3664 163.215Z"
              fill="#262626"
            />
            <path
              d="M160.387 288.233C160.201 288.233 160.023 288.212 159.892 288.176C159.761 288.139 159.687 288.09 159.687 288.038V278.623C159.687 278.572 159.761 278.522 159.892 278.486C160.023 278.449 160.201 278.429 160.387 278.429C160.573 278.429 160.751 278.449 160.882 278.486C161.013 278.522 161.087 278.572 161.087 278.623V288.038C161.087 288.09 161.013 288.139 160.882 288.176C160.751 288.212 160.573 288.233 160.387 288.233Z"
              fill="white"
            />
            <path
              d="M160.387 258.65C160.202 258.65 160.024 258.576 159.893 258.445C159.761 258.314 159.688 258.136 159.688 257.95V241.735C159.688 241.549 159.761 241.371 159.893 241.24C160.024 241.108 160.202 241.035 160.387 241.035C160.573 241.035 160.751 241.108 160.882 241.24C161.014 241.371 161.087 241.549 161.087 241.735V257.95C161.087 258.136 161.014 258.314 160.882 258.445C160.751 258.576 160.573 258.65 160.387 258.65Z"
              fill="white"
            />
            <path
              d="M203.98 259.78C203.939 259.784 203.898 259.784 203.858 259.78C195.209 258.261 190.698 253.481 188.44 249.711C186.96 247.301 185.988 244.614 185.584 241.815C185.575 241.723 185.584 241.63 185.611 241.542C185.637 241.453 185.681 241.371 185.74 241.3C185.798 241.228 185.87 241.169 185.952 241.125C186.033 241.081 186.122 241.054 186.214 241.045C186.306 241.036 186.399 241.045 186.487 241.071C186.576 241.098 186.658 241.142 186.73 241.201C186.801 241.259 186.86 241.331 186.904 241.412C186.948 241.494 186.975 241.583 186.984 241.675C187.388 244.279 188.304 246.777 189.679 249.025C192.752 254.093 197.607 257.243 204.11 258.387C204.295 258.403 204.467 258.492 204.587 258.635C204.707 258.777 204.766 258.961 204.75 259.147C204.734 259.333 204.645 259.504 204.503 259.625C204.361 259.745 204.176 259.803 203.991 259.787L203.98 259.78Z"
              fill="white"
            />
            <path
              d="M119.749 260.712C118.704 260.708 117.66 260.639 116.623 260.505C116.438 260.482 116.269 260.385 116.154 260.237C116.04 260.089 115.989 259.902 116.013 259.716C116.036 259.53 116.133 259.362 116.281 259.247C116.429 259.133 116.616 259.082 116.802 259.105C122.01 259.774 126.203 258.731 129.265 256.015C134.925 250.992 134.921 241.822 134.921 241.731C134.921 241.546 134.995 241.368 135.126 241.236C135.258 241.105 135.436 241.031 135.621 241.031C135.807 241.031 135.985 241.105 136.116 241.236C136.248 241.368 136.321 241.546 136.321 241.731C136.321 242.13 136.321 251.615 130.2 257.065C127.47 259.49 123.963 260.712 119.749 260.712Z"
              fill="white"
            />
            <path
              d="M98.1821 183.866L119.301 196.032L132.759 153.181C132.759 153.181 114.1 147.98 98.1821 183.866Z"
              fill="#262626"
            />
            <path
              d="M106.886 140.927H52.6363C49.9183 140.925 47.3124 139.844 45.3904 137.922C43.4685 136 42.3876 133.394 42.3848 130.676V87.276C42.3829 85.9275 42.6469 84.5918 43.1616 83.3454C43.6762 82.099 44.4315 80.9662 45.3843 80.0119C46.337 79.0575 47.4685 78.3003 48.714 77.7835C49.9596 77.2667 51.2948 77.0005 52.6433 77H106.893C109.611 77.0028 112.217 78.0837 114.139 80.0057C116.061 81.9276 117.142 84.5335 117.145 87.2515V130.652C117.147 132 116.883 133.336 116.368 134.582C115.853 135.829 115.098 136.961 114.145 137.916C113.193 138.87 112.061 139.627 110.816 140.144C109.57 140.661 108.235 140.927 106.886 140.927ZM52.6433 78.4C50.2966 78.4028 48.0468 79.3362 46.3874 80.9956C44.728 82.655 43.7946 84.9048 43.7918 87.2515V130.652C43.7946 132.998 44.728 135.248 46.3874 136.907C48.0468 138.567 50.2966 139.5 52.6433 139.503H106.893C109.24 139.501 111.491 138.568 113.15 136.908C114.81 135.249 115.743 132.998 115.745 130.652V87.2515C115.743 84.9033 114.809 82.6519 113.148 80.9921C111.487 79.3323 109.234 78.4 106.886 78.4H52.6433Z"
              fill="#262626"
            />
            <path
              d="M110.95 101.783H92.5818C92.3962 101.783 92.2181 101.71 92.0869 101.578C91.9556 101.447 91.8818 101.269 91.8818 101.083C91.8818 100.898 91.9556 100.72 92.0869 100.588C92.2181 100.457 92.3962 100.383 92.5818 100.383H110.95C111.135 100.383 111.314 100.457 111.445 100.588C111.576 100.72 111.65 100.898 111.65 101.083C111.65 101.269 111.576 101.447 111.445 101.578C111.314 101.71 111.135 101.783 110.95 101.783Z"
              fill="#262626"
            />
            <path
              d="M110.95 109.015H92.5818C92.3962 109.015 92.2181 108.941 92.0869 108.81C91.9556 108.678 91.8818 108.5 91.8818 108.315C91.8818 108.129 91.9556 107.951 92.0869 107.82C92.2181 107.688 92.3962 107.615 92.5818 107.615H110.95C111.135 107.615 111.314 107.688 111.445 107.82C111.576 107.951 111.65 108.129 111.65 108.315C111.65 108.5 111.576 108.678 111.445 108.81C111.314 108.941 111.135 109.015 110.95 109.015Z"
              fill="#262626"
            />
            <path
              d="M106.158 116.242H92.5818C92.3962 116.242 92.2181 116.168 92.0869 116.037C91.9556 115.905 91.8818 115.727 91.8818 115.542C91.8818 115.356 91.9556 115.178 92.0869 115.047C92.2181 114.916 92.3962 114.842 92.5818 114.842H106.158C106.344 114.842 106.522 114.916 106.653 115.047C106.785 115.178 106.858 115.356 106.858 115.542C106.858 115.727 106.785 115.905 106.653 116.037C106.522 116.168 106.344 116.242 106.158 116.242Z"
              fill="#262626"
            />
            <path
              d="M82.0786 123.119H58.1001L55.9126 115.419H83.5626L82.0786 123.119ZM59.1431 121.719H80.9236L81.8581 116.819H57.7501L59.1431 121.719Z"
              fill="#262626"
            />
            <path
              d="M70.3289 123.119C70.1433 123.119 69.9652 123.046 69.8339 122.914C69.7027 122.783 69.6289 122.605 69.6289 122.419V116.119C69.6289 115.934 69.7027 115.756 69.8339 115.624C69.9652 115.493 70.1433 115.419 70.3289 115.419C70.5146 115.419 70.6926 115.493 70.8239 115.624C70.9552 115.756 71.0289 115.934 71.0289 116.119V122.419C71.0289 122.605 70.9552 122.783 70.8239 122.914C70.6926 123.046 70.5146 123.119 70.3289 123.119Z"
              fill="#262626"
            />
            <path
              d="M80.8044 124.341C81.8559 124.341 82.7084 123.481 82.7084 122.42C82.7084 121.358 81.8559 120.498 80.8044 120.498C79.7528 120.498 78.9004 121.358 78.9004 122.42C78.9004 123.481 79.7528 124.341 80.8044 124.341Z"
              fill="#262626"
            />
            <path
              d="M70.3151 124.341C71.3763 124.341 72.2366 123.481 72.2366 122.42C72.2366 121.358 71.3763 120.498 70.3151 120.498C69.2538 120.498 68.3936 121.358 68.3936 122.42C68.3936 123.481 69.2538 124.341 70.3151 124.341Z"
              fill="#262626"
            />
            <path
              d="M59.3424 124.341C60.392 124.341 61.2429 123.481 61.2429 122.42C61.2429 121.358 60.392 120.498 59.3424 120.498C58.2928 120.498 57.4419 121.358 57.4419 122.42C57.4419 123.481 58.2928 124.341 59.3424 124.341Z"
              fill="#262626"
            />
            <path
              d="M53.1302 102.921C53.0218 102.921 52.9148 102.897 52.8177 102.849C52.7205 102.801 52.6358 102.731 52.5702 102.644L48.6502 97.4609C48.469 97.2194 48.3586 96.9322 48.3314 96.6315C48.3041 96.3308 48.361 96.0284 48.4957 95.7582C48.6305 95.4879 48.8378 95.2605 49.0943 95.1014C49.3509 94.9422 49.6468 94.8576 49.9487 94.8569H61.9222C62.3843 94.8571 62.8397 94.967 63.251 95.1775C63.6624 95.388 64.0178 95.6932 64.2882 96.0679L69.6992 101.72C69.8117 101.857 69.8684 102.03 69.8581 102.207C69.8478 102.383 69.7712 102.549 69.6436 102.671C69.5161 102.794 69.347 102.863 69.1704 102.866C68.9937 102.869 68.8226 102.805 68.6912 102.686L63.1577 96.9149C63.0185 96.7121 62.832 96.5461 62.6143 96.4315C62.3966 96.3169 62.1543 96.2569 61.9082 96.2569H49.9347C49.8923 96.2562 49.8507 96.2677 49.8147 96.2901C49.7787 96.3124 49.7499 96.3447 49.7317 96.3829C49.7131 96.4201 49.7052 96.4618 49.7089 96.5032C49.7126 96.5446 49.7278 96.5841 49.7527 96.6174L53.6867 101.797C53.7428 101.871 53.7838 101.954 53.8075 102.043C53.8312 102.133 53.837 102.225 53.8246 102.317C53.8123 102.408 53.782 102.496 53.7355 102.576C53.689 102.656 53.6272 102.725 53.5537 102.781C53.4316 102.873 53.2829 102.922 53.1302 102.921Z"
              fill="#262626"
            />
            <path
              d="M70.3291 116.974H83.3981L86.6601 102.337C86.7106 102.104 86.7081 101.864 86.6529 101.633C86.5977 101.402 86.4912 101.186 86.3412 101.002C86.1912 100.818 86.0017 100.669 85.7867 100.569C85.5717 100.468 85.3366 100.416 85.0991 100.419H70.3291V116.974Z"
              fill="#FFE18B"
            />
            <path
              d="M56.1749 116.973H70.3289V100.418H52.8499C52.5901 100.418 52.3338 100.479 52.1023 100.597C51.8709 100.715 51.6709 100.886 51.519 101.097C51.3671 101.308 51.2676 101.552 51.2288 101.809C51.19 102.066 51.213 102.328 51.2959 102.574L56.1749 116.973Z"
              fill="#FFE18B"
            />
            <path
              d="M70.3289 115.024C70.1433 115.024 69.9652 114.95 69.8339 114.819C69.7027 114.688 69.6289 114.51 69.6289 114.324V102.2C69.6289 102.014 69.7027 101.836 69.8339 101.705C69.9652 101.574 70.1433 101.5 70.3289 101.5C70.5146 101.5 70.6926 101.574 70.8239 101.705C70.9552 101.836 71.0289 102.014 71.0289 102.2V114.31C71.0308 114.403 71.014 114.496 70.9797 114.582C70.9453 114.669 70.8941 114.748 70.8289 114.814C70.7637 114.881 70.6859 114.933 70.6001 114.969C70.5142 115.005 70.422 115.024 70.3289 115.024Z"
              fill="#262626"
            />
            <path
              d="M64.8269 257.404H42.3499C41.2251 257.403 40.1467 256.956 39.3514 256.161C38.5561 255.365 38.1088 254.287 38.1079 253.162V230.689C38.1098 229.565 38.5574 228.487 39.3526 227.692C40.1479 226.898 41.2258 226.451 42.3499 226.45H64.8199C65.9447 226.451 67.0231 226.898 67.8184 227.694C68.6138 228.489 69.061 229.567 69.0619 230.692V253.166C69.0601 254.289 68.6134 255.365 67.8197 256.16C67.026 256.954 65.9499 257.401 64.8269 257.404ZM42.3499 227.85C41.5965 227.851 40.8741 228.151 40.3413 228.684C39.8086 229.216 39.5088 229.939 39.5079 230.692V253.166C39.5088 253.919 39.8086 254.641 40.3413 255.174C40.8741 255.707 41.5965 256.007 42.3499 256.008H64.8199C65.5734 256.007 66.2957 255.707 66.8285 255.174C67.3613 254.641 67.661 253.919 67.6619 253.166V230.689C67.661 229.935 67.3613 229.213 66.8285 228.68C66.2957 228.147 65.5734 227.848 64.8199 227.847L42.3499 227.85Z"
              fill="#262626"
            />
            <path
              d="M48.5168 239.473C47.8188 239.474 47.1362 239.268 46.5555 238.88C45.9748 238.493 45.522 237.942 45.2546 237.297C44.9871 236.652 44.917 235.943 45.053 235.258C45.189 234.573 45.5251 233.944 46.0187 233.451C46.5123 232.957 47.1412 232.621 47.8259 232.485C48.5106 232.349 49.2203 232.419 49.8651 232.687C50.5099 232.954 51.0608 233.407 51.4482 233.988C51.8356 234.568 52.042 235.251 52.0414 235.949C52.0404 236.883 51.6688 237.779 51.008 238.44C50.3473 239.101 49.4513 239.473 48.5168 239.473ZM48.5168 233.821C48.0958 233.82 47.6841 233.944 47.3336 234.178C46.9832 234.411 46.7099 234.743 46.5483 235.132C46.3867 235.521 46.3441 235.949 46.4258 236.362C46.5075 236.775 46.7099 237.155 47.0074 237.452C47.3049 237.75 47.684 237.953 48.0969 238.036C48.5098 238.118 48.9378 238.076 49.3269 237.915C49.7159 237.754 50.0485 237.482 50.2825 237.132C50.5165 236.782 50.6414 236.37 50.6414 235.949C50.6414 235.385 50.4176 234.844 50.0193 234.445C49.621 234.047 49.0806 233.822 48.5168 233.821Z"
              fill="#262626"
            />
            <path
              d="M58.6671 250.306C57.97 250.306 57.2886 250.099 56.709 249.712C56.1294 249.325 55.6776 248.774 55.4109 248.13C55.1441 247.486 55.0743 246.777 55.2103 246.094C55.3463 245.41 55.682 244.782 56.1749 244.289C56.6678 243.796 57.2958 243.461 57.9795 243.325C58.6632 243.189 59.3718 243.258 60.0158 243.525C60.6599 243.792 61.2103 244.244 61.5976 244.823C61.9849 245.403 62.1916 246.084 62.1916 246.781C62.1907 247.716 61.819 248.612 61.1583 249.273C60.4975 249.933 59.6015 250.305 58.6671 250.306ZM58.6671 244.657C58.2469 244.657 57.8361 244.781 57.4868 245.015C57.1374 245.248 56.8651 245.58 56.7043 245.968C56.5435 246.357 56.5014 246.784 56.5834 247.196C56.6654 247.608 56.8677 247.986 57.1648 248.284C57.4619 248.581 57.8405 248.783 58.2526 248.865C58.6647 248.947 59.0919 248.905 59.4801 248.744C59.8683 248.583 60.2001 248.311 60.4335 247.962C60.667 247.612 60.7916 247.202 60.7916 246.781C60.7925 246.502 60.7382 246.225 60.6319 245.966C60.5255 245.708 60.3692 245.473 60.1718 245.275C59.9744 245.077 59.7399 244.919 59.4817 244.812C59.2235 244.705 58.9467 244.65 58.6671 244.65V244.657Z"
              fill="#262626"
            />
            <path
              d="M46.9001 252.382C46.7765 252.379 46.6558 252.344 46.5501 252.28C46.3916 252.184 46.2776 252.029 46.233 251.85C46.1884 251.67 46.2168 251.48 46.3121 251.321L58.0651 231.809C58.1612 231.649 58.3166 231.535 58.4971 231.49C58.6776 231.446 58.8684 231.474 59.0276 231.571C59.1868 231.667 59.3013 231.822 59.3459 232.003C59.3906 232.183 59.3617 232.374 59.2656 232.533L47.5126 252.042C47.4493 252.147 47.3594 252.234 47.2519 252.294C47.1443 252.354 47.023 252.384 46.9001 252.382Z"
              fill="#262626"
            />
            <path
              d="M314.272 263.834H283.822C281.75 263.832 279.763 263.008 278.297 261.543C276.832 260.077 276.008 258.09 276.006 256.018V195.759C276.01 193.69 276.833 191.707 278.295 190.244C279.757 188.78 281.739 187.956 283.808 187.95H314.258C316.33 187.952 318.317 188.776 319.782 190.241C321.247 191.707 322.071 193.693 322.073 195.766V256.018C322.071 258.088 321.248 260.072 319.786 261.537C318.324 263.001 316.341 263.827 314.272 263.834ZM283.808 189.35C282.107 189.352 280.476 190.029 279.273 191.231C278.071 192.434 277.394 194.065 277.392 195.766V256.018C277.394 257.719 278.071 259.35 279.273 260.553C280.476 261.755 282.107 262.432 283.808 262.434H314.258C315.959 262.432 317.59 261.755 318.792 260.553C319.995 259.35 320.671 257.719 320.673 256.018V195.759C320.67 194.061 319.994 192.435 318.795 191.234C317.595 190.033 315.969 189.356 314.272 189.35H283.808Z"
              fill="#262626"
            />
            <path
              d="M308.34 232.879H289.741C287.951 232.879 286.5 234.33 286.5 236.12V247.352C286.5 249.142 287.951 250.593 289.741 250.593H308.34C310.129 250.593 311.581 249.142 311.581 247.352V236.12C311.581 234.33 310.129 232.879 308.34 232.879Z"
              fill="#FFE18B"
            />
            <path
              d="M310.926 239.932H287.206C287.021 239.932 286.843 239.858 286.711 239.727C286.58 239.596 286.506 239.418 286.506 239.232C286.506 239.047 286.58 238.869 286.711 238.737C286.843 238.606 287.021 238.532 287.206 238.532H310.926C311.111 238.532 311.29 238.606 311.421 238.737C311.552 238.869 311.626 239.047 311.626 239.232C311.626 239.418 311.552 239.596 311.421 239.727C311.29 239.858 311.111 239.932 310.926 239.932Z"
              fill="#262626"
            />
            <path
              d="M294.518 248.409H291.476C290.831 248.385 290.22 248.111 289.772 247.646C289.324 247.181 289.074 246.561 289.074 245.915C289.074 245.269 289.324 244.649 289.772 244.184C290.22 243.719 290.831 243.446 291.476 243.421H294.518C295.163 243.446 295.774 243.719 296.222 244.184C296.67 244.649 296.92 245.269 296.92 245.915C296.92 246.561 296.67 247.181 296.222 247.646C295.774 248.111 295.163 248.385 294.518 248.409ZM291.476 244.821C291.197 244.837 290.934 244.959 290.742 245.163C290.55 245.366 290.443 245.635 290.443 245.915C290.443 246.195 290.55 246.464 290.742 246.668C290.934 246.871 291.197 246.993 291.476 247.009H294.518C294.797 246.993 295.06 246.871 295.252 246.668C295.444 246.464 295.551 246.195 295.551 245.915C295.551 245.635 295.444 245.366 295.252 245.163C295.06 244.959 294.797 244.837 294.518 244.821H291.476Z"
              fill="#262626"
            />
            <path
              d="M309.393 201.463H288.645C286.855 201.463 285.404 202.914 285.404 204.704V215.936C285.404 217.726 286.855 219.177 288.645 219.177H309.393C311.183 219.177 312.634 217.726 312.634 215.936V204.704C312.634 202.914 311.183 201.463 309.393 201.463Z"
              fill="#00C3D0"
            />
            <path
              d="M299.019 214.795C298.132 214.795 297.264 214.532 296.526 214.039C295.788 213.546 295.213 212.845 294.874 212.025C294.534 211.205 294.445 210.303 294.618 209.432C294.792 208.562 295.219 207.763 295.846 207.135C296.474 206.507 297.273 206.08 298.144 205.907C299.014 205.734 299.916 205.823 300.736 206.162C301.556 206.502 302.257 207.077 302.75 207.815C303.243 208.553 303.506 209.42 303.506 210.308C303.505 211.498 303.032 212.638 302.191 213.48C301.35 214.321 300.209 214.794 299.019 214.795ZM299.019 207.221C298.409 207.221 297.812 207.402 297.304 207.741C296.797 208.08 296.401 208.562 296.167 209.126C295.934 209.691 295.872 210.311 295.992 210.91C296.111 211.509 296.405 212.059 296.836 212.491C297.268 212.922 297.818 213.216 298.417 213.335C299.016 213.455 299.636 213.393 300.201 213.16C300.765 212.926 301.247 212.531 301.586 212.023C301.925 211.515 302.106 210.918 302.106 210.308C302.105 209.489 301.78 208.705 301.201 208.126C300.622 207.547 299.838 207.222 299.019 207.221Z"
              fill="#262626"
            />
            <path
              d="M287.969 214.795H285.404V213.395H287.969C288.653 213.318 289.285 212.992 289.744 212.479C290.203 211.966 290.457 211.301 290.457 210.613C290.457 209.924 290.203 209.26 289.744 208.747C289.285 208.233 288.653 207.907 287.969 207.83H285.404V206.43H287.969C289.013 206.526 289.982 207.008 290.689 207.781C291.395 208.555 291.786 209.565 291.786 210.613C291.786 211.66 291.395 212.67 290.689 213.444C289.982 214.218 289.013 214.7 287.969 214.795Z"
              fill="#262626"
            />
            <path
              d="M312.676 214.816H310.1C309.053 214.725 308.078 214.245 307.368 213.47C306.658 212.695 306.264 211.683 306.264 210.632C306.264 209.581 306.658 208.568 307.368 207.793C308.078 207.018 309.053 206.538 310.1 206.447H312.666V207.847H310.1C309.413 207.92 308.777 208.245 308.315 208.759C307.853 209.273 307.597 209.94 307.597 210.632C307.597 211.323 307.853 211.99 308.315 212.504C308.777 213.018 309.413 213.343 310.1 213.416H312.666L312.676 214.816Z"
              fill="#262626"
            />
            <path
              d="M317.366 143.433H231.584C228.903 143.426 226.333 142.358 224.436 140.462C222.54 138.566 221.471 135.997 221.462 133.315V80.7519C221.47 78.0696 222.539 75.4994 224.435 73.6027C226.332 71.7061 228.902 70.6373 231.584 70.6299H317.366C320.048 70.6373 322.618 71.7061 324.515 73.6027C326.412 75.4994 327.481 78.0696 327.488 80.7519V133.315C327.48 135.997 326.41 138.566 324.514 140.462C322.617 142.358 320.048 143.426 317.366 143.433ZM231.584 72.0334C229.273 72.0408 227.059 72.9621 225.425 74.5962C223.791 76.2302 222.87 78.4444 222.862 80.7554V133.315C222.865 135.627 223.785 137.843 225.42 139.478C227.055 141.112 229.272 142.032 231.584 142.033H317.366C319.678 142.032 321.895 141.112 323.53 139.478C325.165 137.843 326.085 135.627 326.088 133.315V80.7519C326.081 78.4409 325.159 76.2267 323.525 74.5927C321.891 72.9586 319.677 72.0373 317.366 72.0299L231.584 72.0334Z"
              fill="#262626"
            />
            <path
              d="M266.105 84.7139H239.176C236.402 84.7139 234.153 86.9625 234.153 89.7364V121.355C234.153 124.129 236.402 126.378 239.176 126.378H266.105C268.879 126.378 271.127 124.129 271.127 121.355V89.7364C271.127 86.9625 268.879 84.7139 266.105 84.7139Z"
              fill="#FFE18B"
            />
            <path
              d="M253.34 107.034H251.94V126.382H253.34V107.034Z"
              fill="#262626"
            />
            <path
              d="M287.357 85.5889H280.84C279.864 85.5889 279.072 86.3802 279.072 87.3564V93.8734C279.072 94.8495 279.864 95.6409 280.84 95.6409H287.357C288.333 95.6409 289.124 94.8495 289.124 93.8734V87.3564C289.124 86.3802 288.333 85.5889 287.357 85.5889Z"
              fill="#00C3D0"
            />
            <path
              d="M301.455 85.5889H294.938C293.962 85.5889 293.17 86.3802 293.17 87.3564V93.8734C293.17 94.8495 293.962 95.6409 294.938 95.6409H301.455C302.431 95.6409 303.222 94.8495 303.222 93.8734V87.3564C303.222 86.3802 302.431 85.5889 301.455 85.5889Z"
              fill="#00C3D0"
            />
            <path
              d="M315.556 85.5889H309.039C308.063 85.5889 307.272 86.3802 307.272 87.3564V93.8734C307.272 94.8495 308.063 95.6409 309.039 95.6409H315.556C316.533 95.6409 317.324 94.8495 317.324 93.8734V87.3564C317.324 86.3802 316.533 85.5889 315.556 85.5889Z"
              fill="#00C3D0"
            />
            <path
              d="M317.327 105.497H279.769C279.583 105.497 279.405 105.423 279.274 105.292C279.143 105.161 279.069 104.983 279.069 104.797C279.069 104.612 279.143 104.433 279.274 104.302C279.405 104.171 279.583 104.097 279.769 104.097H317.327C317.513 104.097 317.691 104.171 317.822 104.302C317.954 104.433 318.027 104.612 318.027 104.797C318.027 104.983 317.954 105.161 317.822 105.292C317.691 105.423 317.513 105.497 317.327 105.497Z"
              fill="#262626"
            />
            <path
              d="M317.327 112.906H279.769C279.583 112.906 279.405 112.833 279.274 112.701C279.143 112.57 279.069 112.392 279.069 112.206C279.069 112.021 279.143 111.843 279.274 111.711C279.405 111.58 279.583 111.506 279.769 111.506H317.327C317.513 111.506 317.691 111.58 317.822 111.711C317.954 111.843 318.027 112.021 318.027 112.206C318.027 112.392 317.954 112.57 317.822 112.701C317.691 112.833 317.513 112.906 317.327 112.906Z"
              fill="#262626"
            />
            <path
              d="M304.255 120.316H279.755C279.57 120.316 279.391 120.242 279.26 120.111C279.129 119.98 279.055 119.802 279.055 119.616C279.055 119.43 279.129 119.252 279.26 119.121C279.391 118.99 279.57 118.916 279.755 118.916H304.255C304.441 118.916 304.619 118.99 304.75 119.121C304.881 119.252 304.955 119.43 304.955 119.616C304.955 119.802 304.881 119.98 304.75 120.111C304.619 120.242 304.441 120.316 304.255 120.316Z"
              fill="#262626"
            />
            <path
              d="M259.612 107.034H245.584C245.437 107.034 245.292 107.005 245.156 106.948C245.021 106.892 244.897 106.809 244.794 106.705C244.69 106.601 244.608 106.478 244.552 106.342C244.496 106.206 244.467 106.06 244.468 105.914V98.8191C244.468 98.651 244.535 98.4899 244.653 98.3711C244.772 98.2523 244.933 98.1856 245.101 98.1856H260.092C260.175 98.1851 260.258 98.2011 260.335 98.2328C260.413 98.2644 260.483 98.311 260.542 98.3699C260.601 98.4287 260.648 98.4987 260.68 98.5758C260.712 98.6529 260.729 98.7356 260.729 98.8191V105.914C260.729 106.06 260.701 106.206 260.645 106.342C260.589 106.478 260.507 106.601 260.403 106.705C260.299 106.809 260.176 106.892 260.04 106.948C259.905 107.005 259.759 107.034 259.612 107.034Z"
              fill="#121212"
              style="mix-blend-mode: plus-lighter"
            />
            <path
              d="M252.598 100.727C257.089 100.727 260.729 99.5889 260.729 98.1855C260.729 96.7822 257.089 95.6445 252.598 95.6445C248.108 95.6445 244.468 96.7822 244.468 98.1855C244.468 99.5889 248.108 100.727 252.598 100.727Z"
              fill="#262626"
            />
            <path
              d="M196.907 242.435H125.507C125.321 242.435 125.143 242.361 125.012 242.23C124.88 242.098 124.807 241.92 124.807 241.735C124.807 241.549 124.88 241.371 125.012 241.24C125.143 241.108 125.321 241.035 125.507 241.035H196.907C197.092 241.035 197.27 241.108 197.402 241.24C197.533 241.371 197.607 241.549 197.607 241.735C197.607 241.92 197.533 242.098 197.402 242.23C197.27 242.361 197.092 242.435 196.907 242.435Z"
              fill="white"
            />
          </svg>