<svg
              width="350"
              height="350"
              viewBox="0 0 350 350"
              fill="none"
              xmlns="http://www.w3.org/2000/svg"
              class="mx-auto"
            >
              <path
                d="M236.919 46.9735L61.9501 123.645C46.6796 130.337 44.3766 151.053 57.8096 160.93L211.684 274.138C225.113 284.018 244.206 275.653 246.043 259.088L267.138 69.2125C268.979 52.633 252.189 40.2815 236.919 46.9735Z"
                fill="#FFF1C9"
              />
              <path
                d="M294.112 282.604H38.3914C38.2058 282.604 38.0277 282.53 37.8964 282.399C37.7652 282.268 37.6914 282.09 37.6914 281.904C37.6914 281.718 37.7652 281.54 37.8964 281.409C38.0277 281.278 38.2058 281.204 38.3914 281.204H294.112C294.298 281.204 294.476 281.278 294.607 281.409C294.738 281.54 294.812 281.718 294.812 281.904C294.812 282.09 294.738 282.268 294.607 282.399C294.476 282.53 294.298 282.604 294.112 282.604Z"
                fill="#262626"
              />
              <path
                d="M198.181 143.44L206.91 114.593C207.031 114.191 207.24 113.82 207.522 113.507C207.803 113.195 208.15 112.948 208.538 112.785C208.926 112.622 209.345 112.546 209.765 112.564C210.185 112.581 210.597 112.691 210.97 112.885L220.392 117.785C220.799 117.997 221.149 118.304 221.413 118.681C221.677 119.057 221.846 119.491 221.906 119.946C221.967 120.401 221.917 120.864 221.76 121.296C221.604 121.728 221.346 122.116 221.008 122.426L198.181 143.44Z"
                fill="#D3B970"
              />
              <path
                d="M195.944 142.31L220.85 126.805C221.237 126.564 221.672 126.414 222.125 126.365C222.578 126.316 223.036 126.369 223.465 126.521C223.894 126.673 224.284 126.92 224.605 127.243C224.926 127.566 225.17 127.957 225.319 128.387L228.623 137.952C228.78 138.407 228.827 138.892 228.76 139.367C228.693 139.843 228.513 140.296 228.237 140.689C227.961 141.082 227.595 141.404 227.17 141.628C226.745 141.852 226.272 141.972 225.792 141.977L195.944 142.31Z"
                fill="#D3B970"
              />
              <path
                d="M160.727 195.688C172.323 195.688 181.723 186.288 181.723 174.692C181.723 163.096 172.323 153.695 160.727 153.695C149.131 153.695 139.73 163.096 139.73 174.692C139.73 186.288 149.131 195.688 160.727 195.688Z"
                fill="#262626"
              />
              <path
                d="M115.539 83.419H33.0856C27.8472 83.419 23.6006 87.6656 23.6006 92.904V129.409C23.6006 134.647 27.8472 138.894 33.0856 138.894H115.539C120.777 138.894 125.024 134.647 125.024 129.409V92.904C125.024 87.6656 120.777 83.419 115.539 83.419Z"
                fill="white"
              />
              <path
                d="M115.538 139.594H33.0889C30.3876 139.591 27.7977 138.517 25.8876 136.607C23.9775 134.697 22.9032 132.107 22.9004 129.405V92.9075C22.9032 90.2062 23.9775 87.6163 25.8876 85.7062C27.7977 83.7961 30.3876 82.7218 33.0889 82.719H115.538C118.239 82.7227 120.828 83.7974 122.737 85.7074C124.647 87.6175 125.721 90.2068 125.723 92.9075V129.405C125.721 132.106 124.647 134.696 122.737 136.606C120.828 138.516 118.239 139.59 115.538 139.594ZM33.0889 84.119C30.7586 84.1208 28.5243 85.0474 26.8765 86.6951C25.2288 88.3429 24.3022 90.5772 24.3004 92.9075V129.405C24.3022 131.736 25.2288 133.97 26.8765 135.618C28.5243 137.266 30.7586 138.192 33.0889 138.194H115.538C117.868 138.191 120.101 137.264 121.749 135.617C123.396 133.969 124.322 131.735 124.323 129.405V92.9075C124.322 90.5778 123.396 88.344 121.749 86.6964C120.101 85.0487 117.868 84.1218 115.538 84.119H33.0889Z"
                fill="#262626"
              />
              <path
                d="M42.1122 102.137C41.9295 102.137 41.7541 102.066 41.6233 101.938C41.4925 101.811 41.4167 101.637 41.4122 101.455C41.3457 98.6055 42.3992 96.9045 43.2987 95.977C44.2909 94.9278 45.6565 94.3117 47.0997 94.262H47.1382C48.532 94.2915 49.8578 94.8701 50.8272 95.872C51.7442 96.7925 52.8327 98.5075 52.7977 101.444C52.7977 101.63 52.7239 101.808 52.5927 101.939C52.4614 102.07 52.2833 102.144 52.0977 102.144C51.912 102.144 51.734 102.07 51.6027 101.939C51.4714 101.808 51.3977 101.63 51.3977 101.444C51.4257 98.994 50.5647 97.594 49.8367 96.8765C49.1249 96.1428 48.1563 95.7137 47.1347 95.6795H47.1102C46.0445 95.7271 45.0397 96.1893 44.3102 96.9675C43.2917 98.0175 42.7737 99.5645 42.8192 101.437C42.8215 101.529 42.8057 101.62 42.7726 101.706C42.7396 101.792 42.69 101.871 42.6266 101.937C42.5632 102.004 42.4873 102.057 42.4033 102.095C42.3192 102.132 42.2286 102.152 42.1367 102.155L42.1122 102.137Z"
                fill="#262626"
              />
              <path
                d="M57.1622 129.119H37.1492C36.659 129.118 36.1746 129.013 35.7283 128.811C35.282 128.608 34.8841 128.313 34.5614 127.944C34.2386 127.575 33.9983 127.141 33.8567 126.672C33.7151 126.203 33.6754 125.709 33.7402 125.223L36.5402 104.419C36.6505 103.593 37.057 102.836 37.684 102.287C38.3111 101.739 39.1161 101.436 39.9492 101.437H53.9002C54.7198 101.437 55.5126 101.73 56.1356 102.262C56.7587 102.795 57.1711 103.532 57.2987 104.342L60.5502 125.15C60.6275 125.639 60.5978 126.14 60.4632 126.617C60.3285 127.095 60.0921 127.537 59.7702 127.914C59.4482 128.291 59.0484 128.594 58.5982 128.802C58.148 129.01 57.6581 129.118 57.1622 129.119Z"
                fill="#FFE18B"
              />
              <path
                d="M111.535 98.2625H73.6122C72.1064 98.2625 70.8857 99.4832 70.8857 100.989V103.107C70.8857 104.612 72.1064 105.833 73.6122 105.833H111.535C113.041 105.833 114.261 104.612 114.261 103.107V100.989C114.261 99.4832 113.041 98.2625 111.535 98.2625Z"
                fill="#121212"
                style="mix-blend-mode: plus-lighter"
              />
              <path
                d="M112.452 115.416H72.6985C72.5129 115.416 72.3348 115.342 72.2036 115.211C72.0723 115.08 71.9985 114.902 71.9985 114.716C71.9985 114.53 72.0723 114.352 72.2036 114.221C72.3348 114.09 72.5129 114.016 72.6985 114.016H112.452C112.637 114.016 112.815 114.09 112.947 114.221C113.078 114.352 113.152 114.53 113.152 114.716C113.152 114.902 113.078 115.08 112.947 115.211C112.815 115.342 112.637 115.416 112.452 115.416Z"
                fill="#262626"
              />
              <path
                d="M106.855 124.411H72.6985C72.5129 124.411 72.3348 124.337 72.2036 124.206C72.0723 124.075 71.9985 123.897 71.9985 123.711C71.9985 123.525 72.0723 123.347 72.2036 123.216C72.3348 123.085 72.5129 123.011 72.6985 123.011H106.855C107.041 123.011 107.219 123.085 107.35 123.216C107.481 123.347 107.555 123.525 107.555 123.711C107.555 123.897 107.481 124.075 107.35 124.206C107.219 124.337 107.041 124.411 106.855 124.411Z"
                fill="#262626"
              />
              <path
                d="M223.517 213.805C235.641 213.805 245.469 204.039 245.469 191.993C245.469 179.946 235.641 170.181 223.517 170.181C211.393 170.181 201.565 179.946 201.565 191.993C201.565 204.039 211.393 213.805 223.517 213.805Z"
                fill="#262626"
              />
              <path
                d="M201.565 184.376C213.689 184.376 223.517 174.611 223.517 162.565C223.517 150.518 213.689 140.753 201.565 140.753C189.441 140.753 179.613 150.518 179.613 162.565C179.613 174.611 189.441 184.376 201.565 184.376Z"
                fill="#262626"
              />
              <path
                d="M182.28 159.061H168.938C165.654 159.061 162.402 158.414 159.367 157.157C156.333 155.9 153.576 154.058 151.254 151.735C148.932 149.413 147.09 146.655 145.833 143.621C144.577 140.587 143.93 137.334 143.931 134.05V116.984C143.935 113.061 145.497 109.3 148.273 106.528C151.049 103.756 154.812 102.199 158.736 102.2H176.75C182.854 102.2 188.709 104.625 193.025 108.941C197.341 113.258 199.766 119.112 199.766 125.216V141.607C199.764 143.901 199.311 146.172 198.431 148.291C197.551 150.41 196.262 152.335 194.639 153.956C193.015 155.577 191.088 156.862 188.967 157.738C186.847 158.614 184.574 159.063 182.28 159.061Z"
                fill="#262626"
              />
              <path
                d="M149.45 108.045C149.45 108.045 141.533 109.214 139.454 125.958C139.208 128.003 138.325 129.92 136.931 131.436L135.657 132.815C135.335 133.162 135.153 133.614 135.143 134.087C135.133 134.56 135.297 135.02 135.604 135.38L137.33 137.41L136.458 148.12C136.458 148.12 134.708 159.534 148.145 159.18H156.692V171.021H183.554V150.668C183.554 150.668 189.676 149.618 190.789 143.591C191.07 142.084 191.006 140.534 190.602 139.055C190.199 137.577 189.465 136.209 188.458 135.055C186.452 132.783 182.917 130.855 177.097 133.571C177.1 133.571 153.979 138.212 149.45 108.045Z"
                fill="white"
              />
              <path
                d="M181.723 146.178C181.17 146.178 180.628 146.013 180.168 145.706C179.707 145.398 179.348 144.961 179.136 144.449C178.925 143.937 178.869 143.374 178.977 142.831C179.085 142.288 179.352 141.789 179.743 141.398C180.135 141.006 180.634 140.739 181.177 140.631C181.72 140.523 182.283 140.579 182.795 140.791C183.306 141.003 183.744 141.361 184.051 141.822C184.359 142.282 184.523 142.824 184.523 143.378C184.523 144.12 184.228 144.832 183.703 145.357C183.178 145.883 182.466 146.178 181.723 146.178ZM181.723 141.957C181.446 141.957 181.176 142.039 180.946 142.192C180.715 142.346 180.536 142.565 180.43 142.821C180.324 143.077 180.296 143.358 180.35 143.63C180.404 143.901 180.538 144.151 180.733 144.346C180.929 144.542 181.179 144.676 181.45 144.73C181.722 144.784 182.003 144.756 182.259 144.65C182.515 144.544 182.734 144.365 182.887 144.134C183.041 143.904 183.123 143.633 183.123 143.357C183.123 142.985 182.976 142.629 182.713 142.367C182.451 142.104 182.095 141.957 181.723 141.957Z"
                fill="#262626"
              />
              <path
                d="M179.613 144.067C179.431 144.067 179.256 143.996 179.125 143.869C178.995 143.743 178.918 143.57 178.913 143.388C178.864 141.943 179.294 140.774 180.197 139.913C181.989 138.205 184.982 138.422 185.097 138.432C185.283 138.446 185.455 138.534 185.577 138.675C185.698 138.817 185.758 139.001 185.743 139.186C185.729 139.372 185.641 139.544 185.5 139.665C185.358 139.786 185.175 139.846 184.989 139.832C184.964 139.832 182.483 139.657 181.139 140.938C180.533 141.519 180.257 142.307 180.292 143.35C180.295 143.442 180.28 143.534 180.248 143.62C180.215 143.707 180.166 143.786 180.103 143.853C180.04 143.92 179.964 143.975 179.88 144.012C179.796 144.05 179.705 144.071 179.613 144.074V144.067Z"
                fill="#262626"
              />
              <path
                d="M152.267 133.55C153.182 133.55 153.923 132.808 153.923 131.894C153.923 130.98 153.182 130.239 152.267 130.239C151.353 130.239 150.612 130.98 150.612 131.894C150.612 132.808 151.353 133.55 152.267 133.55Z"
                fill="#262626"
              />
              <path
                d="M146.454 147.511C145.78 147.514 145.112 147.38 144.49 147.119C142.478 146.269 141.127 144.025 141.13 141.54C141.131 141.332 141.178 141.126 141.266 140.937C141.355 140.749 141.484 140.582 141.644 140.449C141.804 140.315 141.992 140.218 142.193 140.165C142.395 140.112 142.605 140.103 142.81 140.14L151.158 141.631C151.371 141.67 151.573 141.758 151.748 141.886C151.923 142.015 152.066 142.182 152.167 142.374C152.268 142.566 152.324 142.778 152.331 142.995C152.338 143.212 152.296 143.428 152.208 143.626C151.137 146.006 148.767 147.511 146.454 147.511ZM142.558 141.502C142.554 141.512 142.554 141.523 142.558 141.533C142.558 143.465 143.563 145.187 145.064 145.824C147.367 146.797 150.02 145.124 150.962 143.024L150.941 142.982L142.59 141.491L142.558 141.502Z"
                fill="#262626"
              />
              <path
                d="M156.471 159.194H169.306C169.419 159.195 169.529 159.235 169.617 159.307C169.705 159.379 169.766 159.479 169.789 159.591C169.811 159.702 169.796 159.818 169.743 159.919C169.691 160.02 169.606 160.1 169.502 160.146L156.471 165.711V159.194Z"
                fill="#262626"
              />
              <path
                d="M156.471 170.748C156.469 170.109 156.671 169.487 157.049 168.973C157.428 168.458 157.961 168.079 158.571 167.892C159.038 167.75 159.517 167.654 160.003 167.605C161.836 167.435 163.673 167.89 165.214 168.896C166.502 167.899 168.083 167.356 169.712 167.352C171.34 167.348 172.924 167.884 174.216 168.875C175.52 168 177.043 167.508 178.612 167.454C179.597 167.427 180.578 167.576 181.51 167.895C182.091 168.098 182.594 168.476 182.949 168.978C183.305 169.48 183.496 170.08 183.495 170.695V176.82H156.471V170.748Z"
                fill="#FFE18B"
              />
              <path
                d="M260.669 259.105L106.232 258.975L113.078 196.301C113.727 190.361 116.543 184.869 120.986 180.875C125.43 176.881 131.19 174.665 137.165 174.65L201.008 174.489C208.457 174.471 215.741 176.679 221.927 180.829C228.113 184.979 232.917 190.882 235.725 197.782C248.675 227.56 258.044 249.301 259.066 251.881C259.553 253.146 259.942 254.446 260.232 255.77C260.459 256.869 260.605 257.984 260.669 259.105Z"
                fill="#FFE18B"
              />
              <path
                d="M213.945 259.025H134.782V205.373H194.523C195.339 205.373 196.134 205.634 196.791 206.119C197.448 206.603 197.932 207.285 198.174 208.065L213.945 259.025Z"
                fill="#262626"
              />
              <path
                d="M194.512 206.073C194.346 206.075 194.184 206.018 194.055 205.912C193.927 205.805 193.841 205.656 193.812 205.492C193.616 204.334 189.112 177.104 198.509 173.831C198.685 173.77 198.877 173.781 199.045 173.861C199.212 173.942 199.341 174.086 199.402 174.262C199.463 174.437 199.452 174.63 199.372 174.797C199.291 174.964 199.147 175.093 198.971 175.154C192.087 177.548 193.91 197.698 195.195 205.254C195.21 205.345 195.208 205.438 195.187 205.528C195.167 205.617 195.129 205.702 195.076 205.777C195.022 205.853 194.955 205.916 194.877 205.965C194.799 206.014 194.712 206.047 194.621 206.063C194.585 206.069 194.549 206.072 194.512 206.073Z"
                fill="#262626"
              />
              <path
                d="M136.532 206.073C136.374 206.073 136.22 206.02 136.096 205.922C135.973 205.825 135.885 205.688 135.849 205.534C134.021 197.915 133.972 189.977 135.706 182.336C136.334 179.616 137.191 176.953 138.268 174.377C138.342 174.211 138.479 174.08 138.649 174.013C138.818 173.946 139.007 173.948 139.175 174.018C139.344 174.089 139.478 174.222 139.55 174.389C139.621 174.557 139.625 174.746 139.559 174.916C138.514 177.42 137.681 180.007 137.071 182.651C135.384 190.084 135.434 197.805 137.214 205.216C137.235 205.305 137.238 205.398 137.223 205.489C137.207 205.579 137.174 205.666 137.126 205.744C137.077 205.822 137.013 205.89 136.938 205.943C136.863 205.997 136.779 206.035 136.689 206.056C136.638 206.068 136.585 206.074 136.532 206.073Z"
                fill="#262626"
              />
              <path
                d="M126.525 162.302C125.797 161.361 124.962 160.508 124.037 159.761L123.998 159.726C122.267 158.19 120.764 156.415 119.532 154.455C118.44 152.705 117.782 150.913 116.711 148.155C116.176 146.783 115.798 145.705 115.588 145.103C113.092 137.935 111.454 131.509 108.92 130.585C108.539 130.456 108.142 130.374 107.741 130.343C107.206 130.293 106.667 130.351 106.154 130.513C105.642 130.674 105.168 130.937 104.759 131.285C104.487 131.516 104.252 131.787 104.059 132.086C103.079 133.644 103.565 135.901 104.57 140.35C104.731 141.05 104.874 141.627 104.969 142.012L107.002 151.336C107.002 151.336 102.004 152.467 102.284 156.429C102.284 156.429 97.6642 153.692 95.8722 159.068C95.8722 159.068 90.0272 159.54 91.7247 165.952C91.7247 165.952 94.0802 174.534 97.5697 174.818C97.5697 174.818 96.9117 188.209 108.038 194.068L126.238 191.779L127.435 186.592C130.585 172.942 129.164 168.514 128.636 166.876C128.125 165.27 127.416 163.733 126.525 162.302Z"
                fill="white"
              />
              <path
                d="M110.397 186.476C110.286 186.477 110.177 186.451 110.079 186.401C109.98 186.351 109.895 186.279 109.83 186.189C107.728 183.337 106.424 179.976 106.05 176.452C105.255 168.402 109.854 162.452 111.737 160.405L110.278 156.639C110.134 156.257 109.949 155.771 109.742 155.288C108.584 152.596 108.062 150.335 108.195 148.564C108.233 148.03 108.379 147.508 108.623 147.031C108.868 146.554 109.207 146.131 109.62 145.789C110.024 145.452 110.492 145.201 110.996 145.05C111.501 144.9 112.03 144.853 112.553 144.914C115.724 145.264 117.621 148.89 117.701 149.04C117.744 149.122 117.769 149.212 117.777 149.303C117.785 149.395 117.774 149.488 117.747 149.575C117.719 149.663 117.674 149.744 117.614 149.815C117.555 149.885 117.482 149.943 117.4 149.985C117.319 150.028 117.229 150.054 117.137 150.061C117.046 150.069 116.953 150.059 116.865 150.031C116.778 150.003 116.696 149.958 116.626 149.898C116.556 149.839 116.498 149.766 116.455 149.684C116.455 149.653 114.821 146.573 112.399 146.307C112.063 146.268 111.722 146.297 111.398 146.393C111.074 146.489 110.772 146.651 110.512 146.867C110.245 147.089 110.025 147.364 109.867 147.674C109.709 147.984 109.615 148.322 109.592 148.669C109.476 150.213 109.959 152.253 111.027 154.735C111.247 155.242 111.44 155.753 111.587 156.135L113.365 160.72L113.053 161.042C111.538 162.613 106.659 168.357 107.453 176.309C107.798 179.582 109.006 182.704 110.953 185.356C111.062 185.506 111.108 185.693 111.08 185.876C111.052 186.059 110.952 186.223 110.803 186.333C110.686 186.422 110.544 186.472 110.397 186.476Z"
                fill="#262626"
              />
              <path
                d="M150.045 255.605C145.305 255.293 140.548 255.858 136.013 257.271C119.14 262.588 111.653 278.17 110.064 281.698L150.045 281.904V255.605Z"
                fill="white"
              />
              <path
                d="M150.745 282.608L108.983 282.391L109.424 281.411C112.035 275.629 119.826 261.639 135.803 256.603C140.42 255.163 145.262 254.588 150.087 254.905L150.745 254.947V282.608ZM111.16 281.005L149.345 281.201V256.267C144.906 256.05 140.464 256.62 136.223 257.95C121.625 262.539 114.075 274.925 111.16 281.005Z"
                fill="#262626"
              />
              <path
                d="M104.135 176.75C103.452 176.757 102.776 176.608 102.158 176.316C101.388 175.939 100.736 175.359 100.271 174.64C100.032 174.932 99.7322 175.171 99.393 175.34C98.7497 175.644 98.0134 175.688 97.3385 175.462C97.2521 175.431 97.1727 175.382 97.1049 175.32C97.0372 175.258 96.9823 175.183 96.9434 175.1C96.9046 175.016 96.8826 174.926 96.8786 174.834C96.8746 174.742 96.8888 174.651 96.9203 174.564C96.9517 174.478 96.9999 174.398 97.0621 174.331C97.1242 174.263 97.1991 174.208 97.2825 174.169C97.3659 174.13 97.4561 174.108 97.5479 174.104C97.6398 174.1 97.7316 174.115 97.818 174.146C98.1374 174.242 98.4808 174.218 98.784 174.08C98.9955 173.943 99.1778 173.767 99.3203 173.559C99.4627 173.352 99.5624 173.118 99.6135 172.872L100.313 170.594L100.968 172.883C100.968 172.883 101.434 174.412 102.785 175.049C103.744 175.504 104.962 175.424 106.404 174.815C106.489 174.774 106.581 174.752 106.675 174.748C106.769 174.745 106.863 174.76 106.951 174.794C107.039 174.828 107.12 174.879 107.187 174.944C107.255 175.01 107.309 175.088 107.346 175.175C107.383 175.261 107.402 175.355 107.401 175.449C107.401 175.543 107.382 175.636 107.345 175.723C107.308 175.81 107.254 175.888 107.186 175.953C107.118 176.018 107.038 176.069 106.95 176.103C106.064 176.504 105.107 176.724 104.135 176.75Z"
                fill="#262626"
              />
              <path
                d="M100.282 173.782C100.134 173.781 99.9892 173.734 99.8697 173.646C99.7502 173.557 99.6617 173.434 99.6172 173.292L95.2002 159.271C95.1445 159.094 95.1615 158.902 95.2475 158.737C95.3335 158.572 95.4814 158.448 95.6587 158.392C95.836 158.337 96.0281 158.354 96.1929 158.44C96.3576 158.526 96.4815 158.674 96.5372 158.851L100.937 172.872C100.964 172.96 100.974 173.052 100.966 173.144C100.958 173.236 100.932 173.325 100.89 173.406C100.847 173.488 100.789 173.56 100.718 173.619C100.648 173.678 100.566 173.723 100.478 173.751C100.415 173.77 100.349 173.781 100.282 173.782Z"
                fill="#262626"
              />
              <path
                d="M107.212 170.881C107.068 170.88 106.927 170.835 106.81 170.752C106.692 170.669 106.603 170.551 106.554 170.415L101.637 156.657C101.606 156.57 101.592 156.478 101.597 156.386C101.601 156.294 101.624 156.204 101.663 156.121C101.702 156.038 101.758 155.963 101.826 155.901C101.894 155.839 101.974 155.792 102.06 155.761C102.147 155.729 102.239 155.716 102.331 155.72C102.423 155.725 102.513 155.747 102.596 155.787C102.679 155.826 102.754 155.881 102.816 155.95C102.877 156.018 102.925 156.097 102.956 156.184L107.856 169.946C107.894 170.052 107.905 170.165 107.89 170.276C107.875 170.387 107.833 170.493 107.768 170.585C107.703 170.677 107.617 170.751 107.517 170.803C107.418 170.854 107.307 170.881 107.195 170.881H107.212Z"
                fill="#262626"
              />
              <path
                d="M290.483 93.4885H244.685C238.043 93.4885 232.659 98.872 232.659 105.513C232.659 112.154 238.043 117.537 244.685 117.537H290.483C297.124 117.537 302.509 112.154 302.509 105.513C302.509 98.872 297.124 93.4885 290.483 93.4885Z"
                fill="white"
              />
              <path
                d="M290.5 118.241H244.682C241.306 118.241 238.07 116.9 235.683 114.513C233.296 112.127 231.956 108.89 231.956 105.515C231.956 102.139 233.296 98.9025 235.683 96.5159C238.07 94.1293 241.306 92.7885 244.682 92.7885H290.5C293.875 92.7885 297.112 94.1293 299.499 96.5159C301.885 98.9025 303.226 102.139 303.226 105.515C303.226 108.89 301.885 112.127 299.499 114.513C297.112 116.9 293.875 118.241 290.5 118.241ZM244.682 94.1885C241.678 94.1885 238.797 95.3818 236.673 97.5058C234.549 99.6299 233.356 102.511 233.356 105.515C233.356 108.518 234.549 111.399 236.673 113.523C238.797 115.647 241.678 116.841 244.682 116.841H290.5C293.504 116.841 296.385 115.647 298.509 113.523C300.633 111.399 301.826 108.518 301.826 105.515C301.826 102.511 300.633 99.6299 298.509 97.5058C296.385 95.3818 293.504 94.1885 290.5 94.1885H244.682Z"
                fill="#262626"
              />
              <path
                d="M248.553 109.431C250.716 109.431 252.469 107.678 252.469 105.515C252.469 103.352 250.716 101.598 248.553 101.598C246.39 101.598 244.636 103.352 244.636 105.515C244.636 107.678 246.39 109.431 248.553 109.431Z"
                fill="#00C3D0"
              />
              <path
                d="M267.582 109.431C269.745 109.431 271.499 107.678 271.499 105.515C271.499 103.352 269.745 101.598 267.582 101.598C265.419 101.598 263.666 103.352 263.666 105.515C263.666 107.678 265.419 109.431 267.582 109.431Z"
                fill="#00C3D0"
              />
              <path
                d="M286.611 109.431C288.774 109.431 290.528 107.678 290.528 105.515C290.528 103.352 288.774 101.598 286.611 101.598C284.448 101.598 282.695 103.352 282.695 105.515C282.695 107.678 284.448 109.431 286.611 109.431Z"
                fill="#00C3D0"
              />
              <path
                d="M61.6877 159.411H39.4452C34.8911 159.411 31.1992 163.103 31.1992 167.657V189.9C31.1992 194.454 34.8911 198.146 39.4452 198.146H61.6877C66.2419 198.146 69.9337 194.454 69.9337 189.9V167.657C69.9337 163.103 66.2419 159.411 61.6877 159.411Z"
                fill="white"
              />
              <path
                d="M61.684 198.846H39.445C37.0729 198.842 34.7991 197.898 33.1221 196.22C31.4451 194.542 30.5018 192.268 30.499 189.896V167.65C30.5018 165.278 31.4451 163.004 33.1221 161.326C34.7991 159.648 37.0729 158.704 39.445 158.701H61.684C64.0567 158.703 66.3315 159.647 68.0092 161.325C69.687 163.003 70.6307 165.277 70.6335 167.65V189.886C70.6335 192.26 69.691 194.537 68.0129 196.217C66.3349 197.897 64.0585 198.843 61.684 198.846ZM39.445 160.111C37.4455 160.113 35.5283 160.908 34.1137 162.321C32.6992 163.734 31.9027 165.65 31.899 167.65V189.886C31.9009 191.887 32.6964 193.805 34.111 195.221C35.5257 196.636 37.4439 197.432 39.445 197.435H61.684C63.6854 197.432 65.6041 196.636 67.0193 195.221C68.4345 193.806 69.2307 191.887 69.2335 189.886V167.65C69.2317 165.648 68.4357 163.729 67.0203 162.314C65.6049 160.898 63.6857 160.102 61.684 160.101L39.445 160.111Z"
                fill="#262626"
              />
              <path
                d="M61.369 172.448C60.941 171.663 60.3022 171.012 59.5245 170.569C55.951 168.57 52.3425 169.809 50.575 172.406C48.783 169.778 45.1045 168.535 41.475 170.656C40.8164 171.04 40.266 171.584 39.8755 172.238C38.234 174.996 38.556 177.765 39.935 179.735C39.9599 179.771 39.9868 179.805 40.0155 179.837V179.854C40.0435 179.893 41.8005 181.93 42.8995 183.043C44.9975 185.087 47.1971 187.024 49.49 188.846C49.7866 189.088 50.1574 189.22 50.54 189.22C50.9225 189.22 51.2934 189.088 51.59 188.846C53.5675 187.267 55.174 185.899 56.3675 184.852C57.2792 184.094 58.1398 183.275 58.9435 182.402C60.6585 180.509 64.435 178.027 61.369 172.448Z"
                fill="#D3B970"
              />
              <path
                d="M314.591 144.865H246.323C239.824 144.865 234.556 150.133 234.556 156.632V231.367C234.556 237.866 239.824 243.134 246.323 243.134H314.591C321.089 243.134 326.358 237.866 326.358 231.367V156.632C326.358 150.133 321.089 144.865 314.591 144.865Z"
                fill="white"
              />
              <path
                d="M314.59 243.835H246.323C243.018 243.831 239.849 242.516 237.512 240.179C235.174 237.842 233.86 234.673 233.856 231.368V156.632C233.86 153.327 235.174 150.158 237.512 147.821C239.849 145.483 243.018 144.169 246.323 144.165H314.59C317.896 144.169 321.065 145.483 323.402 147.821C325.739 150.158 327.054 153.327 327.057 156.632V231.368C327.054 234.673 325.739 237.842 323.402 240.179C321.065 242.516 317.896 243.831 314.59 243.835ZM246.323 145.565C243.389 145.569 240.576 146.736 238.502 148.811C236.427 150.885 235.26 153.698 235.256 156.632V231.368C235.26 234.302 236.427 237.114 238.502 239.189C240.576 241.264 243.389 242.431 246.323 242.435H314.59C317.524 242.431 320.337 241.264 322.412 239.189C324.487 237.114 325.654 234.302 325.657 231.368V156.632C325.655 153.698 324.488 150.884 322.413 148.81C320.338 146.735 317.525 145.568 314.59 145.565H246.323Z"
                fill="#262626"
              />
              <path
                d="M257.492 181.822H248.36C245.71 181.822 243.562 183.97 243.562 186.62V195.752C243.562 198.402 245.71 200.55 248.36 200.55H257.492C260.142 200.55 262.29 198.402 262.29 195.752V186.62C262.29 183.97 260.142 181.822 257.492 181.822Z"
                fill="#FFF1C9"
              />
              <path
                d="M257.492 210.252H248.36C245.71 210.252 243.562 212.4 243.562 215.05V224.182C243.562 226.832 245.71 228.98 248.36 228.98H257.492C260.142 228.98 262.29 226.832 262.29 224.182V215.05C262.29 212.4 260.142 210.252 257.492 210.252Z"
                fill="#FFF1C9"
              />
              <path
                d="M316.123 186.63H273.85C273.665 186.63 273.487 186.557 273.355 186.425C273.224 186.294 273.15 186.116 273.15 185.93C273.15 185.745 273.224 185.567 273.355 185.436C273.487 185.304 273.665 185.23 273.85 185.23H316.123C316.309 185.23 316.487 185.304 316.618 185.436C316.75 185.567 316.823 185.745 316.823 185.93C316.823 186.116 316.75 186.294 316.618 186.425C316.487 186.557 316.309 186.63 316.123 186.63Z"
                fill="#262626"
              />
              <path
                d="M299.908 196.938H273.85C273.665 196.938 273.487 196.864 273.355 196.733C273.224 196.602 273.15 196.424 273.15 196.238C273.15 196.052 273.224 195.874 273.355 195.743C273.487 195.612 273.665 195.538 273.85 195.538H299.908C300.094 195.538 300.272 195.612 300.403 195.743C300.534 195.874 300.608 196.052 300.608 196.238C300.608 196.424 300.534 196.602 300.403 196.733C300.272 196.864 300.094 196.938 299.908 196.938Z"
                fill="#262626"
              />
              <path
                d="M316.123 215.163H273.85C273.665 215.163 273.487 215.089 273.355 214.958C273.224 214.826 273.15 214.648 273.15 214.463C273.15 214.277 273.224 214.099 273.355 213.968C273.487 213.836 273.665 213.763 273.85 213.763H316.123C316.309 213.763 316.487 213.836 316.618 213.968C316.75 214.099 316.823 214.277 316.823 214.463C316.823 214.648 316.75 214.826 316.618 214.958C316.487 215.089 316.309 215.163 316.123 215.163Z"
                fill="#262626"
              />
              <path
                d="M299.908 225.47H273.85C273.665 225.47 273.487 225.396 273.355 225.265C273.224 225.134 273.15 224.956 273.15 224.77C273.15 224.584 273.224 224.406 273.355 224.275C273.487 224.144 273.665 224.07 273.85 224.07H299.908C300.094 224.07 300.272 224.144 300.403 224.275C300.534 224.406 300.608 224.584 300.608 224.77C300.608 224.956 300.534 225.134 300.403 225.265C300.272 225.396 300.094 225.47 299.908 225.47Z"
                fill="#262626"
              />
              <path
                d="M260.263 158.036C259.972 157.497 259.534 157.052 259 156.751C256.55 155.379 254.079 156.23 252.868 158.011C251.639 156.209 249.119 155.358 246.638 156.804C246.188 157.069 245.812 157.443 245.546 157.892C244.419 159.779 244.639 161.676 245.584 163.027C245.601 163.051 245.62 163.075 245.64 163.097C245.661 163.125 246.865 164.521 247.618 165.284C248.262 165.932 249.851 167.416 252.133 169.257C252.336 169.42 252.588 169.509 252.849 169.509C253.109 169.509 253.362 169.42 253.564 169.257C254.919 168.172 256.014 167.234 256.837 166.52C257.455 166 258.04 165.441 258.587 164.847C259.777 163.562 262.367 161.861 260.263 158.036Z"
                fill="#D3B970"
              />
              <path
                d="M230.713 289.062H154.903C153.747 289.062 152.601 288.835 151.532 288.392C150.463 287.95 149.492 287.301 148.674 286.484C147.856 285.666 147.207 284.695 146.764 283.626C146.322 282.558 146.094 281.412 146.094 280.256V265.72C146.095 260.534 148.155 255.561 151.822 251.894C155.489 248.227 160.462 246.166 165.648 246.166H247.73C251.165 246.166 254.459 247.53 256.887 249.958C259.316 252.387 260.68 255.681 260.68 259.116C260.679 263.049 259.903 266.945 258.396 270.579C256.889 274.213 254.681 277.514 251.899 280.295C249.116 283.076 245.813 285.281 242.178 286.785C238.543 288.289 234.647 289.063 230.713 289.062Z"
                fill="#FFE18B"
              />
              <path
                d="M113.48 290.451C110.342 290.386 107.247 289.703 104.373 288.442C101.498 287.181 98.9001 285.366 96.7271 283.1C94.554 280.835 92.8485 278.164 91.7079 275.239C90.5673 272.315 90.0139 269.194 90.0794 266.056L91.3849 203.248C91.4612 199.642 92.9666 196.213 95.5702 193.715C98.1738 191.218 101.663 189.857 105.269 189.931L125.867 190.361C129.471 190.44 132.897 191.946 135.391 194.549C137.885 197.152 139.243 200.638 139.167 204.242L137.875 267.05C137.81 270.188 137.128 273.283 135.867 276.158C134.605 279.032 132.79 281.63 130.525 283.803C128.26 285.976 125.588 287.682 122.664 288.823C119.739 289.963 116.619 290.516 113.48 290.451Z"
                fill="#FFE18B"
              />
              <path
                d="M225.575 246.162H206.57C206.384 246.162 206.206 246.088 206.075 245.957C205.944 245.826 205.87 245.648 205.87 245.462C205.87 245.276 205.944 245.098 206.075 244.967C206.206 244.836 206.384 244.762 206.57 244.762H225.575C225.761 244.762 225.939 244.836 226.07 244.967C226.201 245.098 226.275 245.276 226.275 245.462C226.275 245.648 226.201 245.826 226.07 245.957C225.939 246.088 225.761 246.162 225.575 246.162Z"
                fill="#262626"
              />
              <path
                d="M203.63 144.4C202.624 144.4 201.64 144.101 200.804 143.543C199.967 142.984 199.315 142.19 198.929 141.26C198.544 140.331 198.443 139.308 198.638 138.322C198.834 137.335 199.317 136.428 200.028 135.716C200.739 135.004 201.644 134.518 202.631 134.321C203.617 134.123 204.64 134.222 205.57 134.606C206.5 134.989 207.296 135.64 207.856 136.476C208.417 137.311 208.717 138.294 208.719 139.3C208.72 139.969 208.589 140.632 208.334 141.25C208.078 141.869 207.704 142.431 207.231 142.904C206.759 143.378 206.197 143.754 205.579 144.01C204.961 144.267 204.299 144.399 203.63 144.4ZM203.63 135.621C202.9 135.622 202.186 135.838 201.579 136.244C200.973 136.65 200.5 137.227 200.221 137.901C199.942 138.576 199.869 139.318 200.013 140.034C200.156 140.75 200.508 141.407 201.025 141.923C201.542 142.438 202.2 142.789 202.917 142.93C203.633 143.071 204.375 142.996 205.049 142.716C205.723 142.435 206.298 141.96 206.702 141.352C207.107 140.744 207.321 140.03 207.319 139.3C207.315 138.324 206.925 137.389 206.234 136.699C205.542 136.01 204.606 135.622 203.63 135.621Z"
                fill="#262626"
              />
              <path
                d="M139.265 206.073C139.079 206.073 138.901 205.999 138.77 205.868C138.639 205.737 138.565 205.559 138.565 205.373C138.474 191.405 127.05 191.1 126.571 191.1C126.385 191.1 126.207 191.026 126.076 190.895C125.944 190.764 125.871 190.586 125.871 190.4C125.871 190.214 125.944 190.036 126.076 189.905C126.207 189.774 126.385 189.7 126.571 189.7C126.704 189.7 139.85 190.005 139.951 205.377C139.951 205.562 139.877 205.74 139.746 205.871C139.615 206.003 139.437 206.077 139.251 206.077L139.265 206.073Z"
                fill="#262626"
              />
              <path
                d="M180.187 175.392H158.487C158.301 175.392 158.123 175.318 157.992 175.187C157.861 175.056 157.787 174.878 157.787 174.692C157.787 174.506 157.861 174.328 157.992 174.197C158.123 174.066 158.301 173.992 158.487 173.992H180.187C180.373 173.992 180.551 174.066 180.682 174.197C180.813 174.328 180.887 174.506 180.887 174.692C180.887 174.878 180.813 175.056 180.682 175.187C180.551 175.318 180.373 175.392 180.187 175.392Z"
                fill="#262626"
              />
              <path
                d="M159.621 286.342C159.435 286.342 159.257 286.268 159.126 286.137C158.995 286.006 158.921 285.828 158.921 285.642V253.89C158.921 253.704 158.995 253.526 159.126 253.395C159.257 253.264 159.435 253.19 159.621 253.19C159.807 253.19 159.985 253.264 160.116 253.395C160.247 253.526 160.321 253.704 160.321 253.89V285.642C160.321 285.828 160.247 286.006 160.116 286.137C159.985 286.268 159.807 286.342 159.621 286.342Z"
                fill="#262626"
              />
              <path
                d="M130.778 203.098H99.0291C98.8434 203.098 98.6654 203.024 98.5341 202.893C98.4029 202.762 98.3291 202.584 98.3291 202.398C98.3291 202.212 98.4029 202.034 98.5341 201.903C98.6654 201.772 98.8434 201.698 99.0291 201.698H130.778C130.963 201.698 131.141 201.772 131.273 201.903C131.404 202.034 131.478 202.212 131.478 202.398C131.478 202.584 131.404 202.762 131.273 202.893C131.141 203.024 130.963 203.098 130.778 203.098Z"
                fill="#262626"
              />
              <path
                d="M54.5368 250.561C54.3934 250.562 54.2533 250.518 54.1356 250.436C54.018 250.354 53.9283 250.238 53.8788 250.103C49.8188 239.029 41.4258 230.037 41.3418 229.95C41.2142 229.815 41.1454 229.635 41.1507 229.449C41.1559 229.263 41.2347 229.087 41.3698 228.959C41.5049 228.832 41.6851 228.763 41.8709 228.768C42.0566 228.774 42.2327 228.852 42.3603 228.987C42.4443 229.078 51.0333 238.269 55.1948 249.637C55.258 249.812 55.2497 250.004 55.1716 250.172C55.0936 250.339 54.9521 250.47 54.7783 250.533C54.7003 250.558 54.6184 250.567 54.5368 250.561Z"
                fill="#262626"
              />
              <path
                d="M58.4988 251.703C58.3132 251.703 58.1351 251.629 58.0039 251.498C57.8726 251.366 57.7988 251.188 57.7988 251.003V241.416C57.7988 241.23 57.8726 241.052 58.0039 240.921C58.1351 240.79 58.3132 240.716 58.4988 240.716C58.6845 240.716 58.8625 240.79 58.9938 240.921C59.1251 241.052 59.1988 241.23 59.1988 241.416V251.003C59.1988 251.188 59.1251 251.366 58.9938 251.498C58.8625 251.629 58.6845 251.703 58.4988 251.703Z"
                fill="#262626"
              />
              <path
                d="M79.1244 265.419C79.1235 263.127 78.2127 260.93 76.5924 259.31C74.972 257.689 72.7745 256.778 70.4829 256.778H68.5579V250.25H44.7369V256.781H42.8119C40.52 256.781 38.322 257.691 36.7014 259.312C35.0809 260.933 34.1704 263.131 34.1704 265.422C34.1732 267.712 35.085 269.907 36.7054 271.525C38.3258 273.143 40.5222 274.051 42.8119 274.05C41.6773 274.05 40.5536 274.273 39.5052 274.707C38.4568 275.14 37.5041 275.777 36.7017 276.579C35.8992 277.381 35.2626 278.333 34.8283 279.382C34.394 280.43 34.1704 281.553 34.1704 282.688C34.17 283.823 34.3932 284.947 34.8273 285.996C35.2614 287.044 35.8979 287.997 36.7004 288.799C37.503 289.602 38.4558 290.239 39.5044 290.673C40.5531 291.107 41.677 291.33 42.8119 291.329H70.4829C72.7748 291.329 74.9728 290.419 76.5934 288.798C78.214 287.178 79.1244 284.98 79.1244 282.688C79.1235 280.397 78.2126 278.2 76.5921 276.58C74.9716 274.96 72.7742 274.05 70.4829 274.05C72.773 274.05 74.9694 273.141 76.5897 271.523C78.21 269.904 79.1216 267.709 79.1244 265.419Z"
                fill="#00C3D0"
              />
              <path
                d="M70.8472 274.799H61.0857C60.9001 274.799 60.722 274.725 60.5908 274.594C60.4595 274.463 60.3857 274.285 60.3857 274.099C60.3857 273.913 60.4595 273.735 60.5908 273.604C60.722 273.473 60.9001 273.399 61.0857 273.399H70.8472C71.0329 273.399 71.2109 273.473 71.3422 273.604C71.4735 273.735 71.5472 273.913 71.5472 274.099C71.5472 274.285 71.4735 274.463 71.3422 274.594C71.2109 274.725 71.0329 274.799 70.8472 274.799Z"
                fill="#262626"
              />
              <path
                d="M47.4042 274.75H42.2942C42.1086 274.75 41.9305 274.676 41.7993 274.545C41.668 274.414 41.5942 274.236 41.5942 274.05C41.5942 273.864 41.668 273.686 41.7993 273.555C41.9305 273.424 42.1086 273.35 42.2942 273.35H47.4042C47.5899 273.35 47.7679 273.424 47.8992 273.555C48.0305 273.686 48.1042 273.864 48.1042 274.05C48.1042 274.236 48.0305 274.414 47.8992 274.545C47.7679 274.676 47.5899 274.75 47.4042 274.75Z"
                fill="#262626"
              />
              <path
                d="M56.6509 252.28C63.3488 252.28 68.7784 251.149 68.7784 249.753C68.7784 248.357 63.3488 247.226 56.6509 247.226C49.9531 247.226 44.5234 248.357 44.5234 249.753C44.5234 251.149 49.9531 252.28 56.6509 252.28Z"
                fill="#262626"
              />
              <path
                d="M58.4989 241.416C61.6593 241.416 64.2214 238.854 64.2214 235.694C64.2214 232.533 61.6593 229.971 58.4989 229.971C55.3384 229.971 52.7764 232.533 52.7764 235.694C52.7764 238.854 55.3384 241.416 58.4989 241.416Z"
                fill="#121212"
                style="mix-blend-mode: plus-lighter"
              />
              <path
                d="M39.7917 233.261C43.1783 233.261 45.9237 230.516 45.9237 227.129C45.9237 223.742 43.1783 220.997 39.7917 220.997C36.4051 220.997 33.6597 223.742 33.6597 227.129C33.6597 230.516 36.4051 233.261 39.7917 233.261Z"
                fill="#121212"
                style="mix-blend-mode: plus-lighter"
              />
              <path
                d="M113.613 139.139C112.913 137.228 111.902 134.775 110.481 132.724C109.277 130.974 107.901 130.239 106.389 130.501C105.952 130.553 105.532 130.701 105.159 130.935C104.785 131.169 104.468 131.482 104.23 131.852C103.036 133.767 103.831 137.144 104.23 138.502L104.282 138.677L102.949 139.101L102.886 138.894C102.329 136.976 101.605 133.417 103.043 131.11C103.384 130.571 103.839 130.113 104.376 129.769C104.913 129.425 105.519 129.203 106.151 129.119C108.22 128.769 110.117 129.728 111.636 131.919C113.155 134.11 114.187 136.658 114.929 138.642L113.613 139.139Z"
                fill="#262626"
              />
            </svg>